<svg xmlns="http://www.w3.org/2000/svg" xmlns:xlink="http://www.w3.org/1999/xlink" width="500" zoomAndPan="magnify" viewBox="0 0 375 374.999991" height="500" preserveAspectRatio="xMidYMid meet" version="1.2"><defs><clipPath id="5d425ea37f"><path d="M 10.148438 10.148438 L 364.898438 10.148438 L 364.898438 364.898438 L 10.148438 364.898438 Z M 10.148438 10.148438 "/></clipPath><clipPath id="08dc72ec2d"><path d="M 55 217 L 320 217 L 320 364.898438 L 55 364.898438 Z M 55 217 "/></clipPath></defs><g id="8ecc475199"><g clip-rule="nonzero" clip-path="url(#5d425ea37f)"><path style=" stroke:none;fill-rule:nonzero;fill:#b3b3b3;fill-opacity:1;" d="M 364.914062 187.53125 C 364.914062 232.910156 347.886719 274.300781 319.84375 305.667969 C 287.371094 342.03125 240.128906 364.910156 187.535156 364.910156 C 134.941406 364.910156 87.683594 342.03125 55.222656 305.667969 C 27.183594 274.300781 10.15625 232.910156 10.15625 187.53125 C 10.15625 89.574219 89.5625 10.152344 187.535156 10.152344 C 285.492188 10.152344 364.914062 89.574219 364.914062 187.53125 "/></g><path style=" stroke:none;fill-rule:nonzero;fill:#f2f2f2;fill-opacity:1;" d="M 187.535156 220.207031 C 219.683594 220.207031 248.964844 183.832031 248.964844 143.894531 C 248.964844 106.160156 241.667969 68.847656 187.535156 68.847656 C 133.394531 68.847656 126.09375 106.160156 126.09375 143.894531 C 126.09375 183.832031 155.378906 220.207031 187.535156 220.207031 "/><g clip-rule="nonzero" clip-path="url(#08dc72ec2d)"><path style=" stroke:none;fill-rule:nonzero;fill:#f2f2f2;fill-opacity:1;" d="M 319.84375 305.667969 C 287.371094 342.03125 240.128906 364.910156 187.535156 364.910156 C 134.941406 364.910156 87.683594 342.03125 55.222656 305.667969 C 54.664062 283.761719 69.25 233 143.664062 217.375 C 156.390625 230.367188 172.058594 237.714844 187.535156 237.714844 C 203.011719 237.714844 218.664062 230.367188 231.390625 217.375 C 305.816406 233 320.394531 283.761719 319.84375 305.667969 "/></g></g></svg>