<svg xmlns="http://www.w3.org/2000/svg" xmlns:xlink="http://www.w3.org/1999/xlink" width="1500" zoomAndPan="magnify" viewBox="0 0 1125 374.999991" height="500" preserveAspectRatio="xMidYMid meet" version="1.2"><defs><clipPath id="db38bd4777"><path d="M 681.441406 17 L 1125 17 L 1125 375 L 681.441406 375 Z M 681.441406 17 "/></clipPath></defs><g id="40e11ec6e9"><path style=" stroke:none;fill-rule:nonzero;fill:#b3b3b3;fill-opacity:1;" d="M 721.214844 441.910156 L 720.835938 441.441406 C 739.878906 426.183594 752.800781 402.160156 760.34375 367.996094 C 762.84375 356.660156 764.671875 344.976562 766.433594 333.675781 C 768.988281 317.335938 771.628906 300.4375 776.359375 284.300781 C 780.0625 271.675781 784.351562 262.152344 789.855469 254.335938 C 797.542969 243.414062 808.824219 234.550781 822.476562 228.707031 C 835.164062 223.277344 849.546875 220.53125 864.066406 220.761719 C 894.210938 221.242188 923.0625 233.257812 944.828125 243.675781 C 950.308594 246.296875 955.839844 249.0625 961.1875 251.734375 C 975.96875 259.121094 991.253906 266.757812 1007.113281 272.234375 C 1032.136719 280.871094 1054.753906 282.542969 1074.328125 277.183594 C 1098.066406 270.691406 1116.402344 252.976562 1121.042969 232.054688 C 1124.289062 217.429688 1121.308594 200.613281 1112.1875 182.082031 C 1108.21875 174.011719 1103.457031 166.191406 1098.855469 158.632812 C 1094.597656 151.640625 1090.199219 144.410156 1086.425781 136.988281 C 1080.886719 126.066406 1076.621094 114.667969 1073.625 102.796875 C 1070.628906 90.921875 1068.980469 78.867188 1068.671875 66.625 C 1068.488281 58.8125 1068.785156 48.691406 1072.753906 39.65625 C 1076.519531 31.085938 1083.363281 24.085938 1089.558594 18.371094 C 1100.808594 8 1112.988281 -1.140625 1126.09375 -9.042969 L 1126.40625 -8.53125 C 1113.335938 -0.648438 1101.1875 8.46875 1089.96875 18.8125 C 1083.816406 24.488281 1077.027344 31.429688 1073.304688 39.898438 C 1069.386719 48.824219 1069.089844 58.863281 1069.273438 66.609375 C 1069.578125 78.804688 1071.226562 90.820312 1074.207031 102.648438 C 1077.191406 114.480469 1081.445312 125.835938 1086.960938 136.71875 C 1090.722656 144.117188 1095.121094 151.335938 1099.371094 158.316406 C 1103.980469 165.890625 1108.746094 173.722656 1112.730469 181.816406 C 1121.910156 200.476562 1124.90625 217.421875 1121.632812 232.183594 C 1116.941406 253.324219 1098.4375 271.214844 1074.488281 277.765625 C 1054.792969 283.152344 1032.058594 281.480469 1006.917969 272.800781 C 991.023438 267.3125 975.71875 259.667969 960.917969 252.273438 C 955.574219 249.601562 950.042969 246.835938 944.570312 244.21875 C 922.859375 233.828125 894.085938 221.84375 864.054688 221.363281 C 833.402344 220.875 805.15625 233.640625 790.347656 254.683594 C 784.882812 262.445312 780.621094 271.910156 776.9375 284.472656 C 772.214844 300.570312 769.578125 317.449219 767.03125 333.769531 C 765.261719 345.078125 763.4375 356.773438 760.929688 368.128906 C 753.359375 402.429688 740.367188 426.5625 721.214844 441.910156 Z M 721.214844 441.910156 "/><path style=" stroke:none;fill-rule:nonzero;fill:#b3b3b3;fill-opacity:1;" d="M 721.964844 442.328125 L 721.617188 441.835938 C 740.785156 428.34375 754.789062 405.074219 763.238281 372.671875 C 766.066406 361.789062 768.132812 350.800781 769.941406 340.550781 C 770.296875 338.546875 770.648438 336.542969 771 334.535156 C 773.53125 320.089844 776.144531 305.148438 780.242188 290.789062 C 783.796875 278.320312 787.816406 268.886719 792.886719 261.105469 C 798.878906 251.914062 806.976562 244.152344 816.953125 238.027344 C 830.335938 229.800781 846 225.097656 862.25 224.425781 C 865.601562 224.285156 869.042969 224.300781 872.476562 224.476562 C 895.582031 225.664062 917.851562 234.242188 934.671875 241.578125 C 936.941406 242.570312 939.316406 243.628906 941.726562 244.722656 C 946.578125 246.929688 951.484375 249.234375 956.226562 251.464844 C 971.449219 258.621094 987.191406 266.019531 1003.460938 271.1875 C 1028.117188 279.007812 1050.371094 280.296875 1069.621094 275.015625 C 1089.261719 269.632812 1105.945312 256.035156 1113.160156 239.535156 C 1114.214844 237.125 1115.074219 234.644531 1115.734375 232.097656 C 1119.328125 218.238281 1117.074219 202.007812 1109.035156 183.855469 C 1105 174.742188 1099.703125 165.945312 1094.582031 157.433594 C 1093.8125 156.15625 1093.046875 154.878906 1092.277344 153.605469 C 1088.378906 147.085938 1085.550781 142.011719 1083.109375 137.148438 C 1071.6875 114.410156 1065.546875 89.308594 1065.351562 64.558594 C 1065.335938 62.886719 1065.351562 61.34375 1065.398438 59.835938 C 1065.671875 50.535156 1067.097656 43.226562 1069.882812 36.828125 C 1073.839844 27.730469 1080.65625 20.496094 1086.800781 14.617188 C 1098.1875 3.675781 1110.769531 -5.65625 1124.542969 -13.378906 L 1124.835938 -12.855469 C 1111.105469 -5.15625 1098.566406 4.144531 1087.214844 15.050781 C 1081.113281 20.886719 1074.351562 28.070312 1070.433594 37.066406 C 1067.679688 43.390625 1066.269531 50.632812 1066 59.855469 C 1065.953125 61.351562 1065.9375 62.890625 1065.953125 64.550781 C 1066.148438 89.210938 1072.265625 114.222656 1083.644531 136.878906 C 1086.082031 141.726562 1088.902344 146.789062 1092.796875 153.296875 C 1093.558594 154.574219 1094.324219 155.847656 1095.09375 157.125 C 1100.226562 165.648438 1105.535156 174.464844 1109.585938 183.613281 C 1117.679688 201.890625 1119.945312 218.253906 1116.316406 232.246094 C 1115.648438 234.824219 1114.777344 237.335938 1113.710938 239.773438 C 1106.425781 256.4375 1089.59375 270.160156 1069.78125 275.59375 C 1050.421875 280.90625 1028.046875 279.613281 1003.28125 271.757812 C 986.972656 266.578125 971.210938 259.171875 955.96875 252.007812 C 951.230469 249.777344 946.328125 247.472656 941.480469 245.269531 C 939.070312 244.175781 936.699219 243.117188 934.429688 242.125 C 917.660156 234.808594 895.457031 226.257812 872.445312 225.074219 C 869.03125 224.902344 865.609375 224.882812 862.273438 225.023438 C 846.359375 225.679688 830.375 230.480469 817.269531 238.539062 C 807.367188 244.613281 799.332031 252.316406 793.386719 261.433594 C 788.351562 269.160156 784.359375 278.542969 780.820312 290.949219 C 776.734375 305.28125 774.117188 320.207031 771.589844 334.640625 C 771.242188 336.644531 770.886719 338.648438 770.535156 340.65625 C 768.71875 350.917969 766.648438 361.921875 763.820312 372.824219 C 755.332031 405.367188 741.25 428.753906 721.964844 442.328125 Z M 721.964844 442.328125 "/><path style=" stroke:none;fill-rule:nonzero;fill:#b3b3b3;fill-opacity:1;" d="M 722.710938 442.746094 L 722.398438 442.234375 C 741.96875 430.335938 756.683594 408.507812 766.136719 377.347656 C 768.824219 368.425781 771.144531 358.792969 773.65625 346.117188 C 774.375 342.5 775.070312 338.871094 775.769531 335.246094 C 778.171875 322.730469 780.660156 309.792969 784.121094 297.277344 C 787.53125 284.953125 791.28125 275.613281 795.917969 267.882812 C 801.4375 258.691406 808.867188 250.730469 818 244.21875 C 824.253906 239.738281 830.976562 236.132812 838.167969 233.398438 C 845.359375 230.664062 852.78125 228.898438 860.429688 228.09375 C 863.722656 227.75 867.023438 227.578125 870.332031 227.578125 C 892.054688 227.585938 913.511719 235.285156 931.640625 242.820312 C 933.847656 243.734375 936.132812 244.703125 938.628906 245.773438 C 942.738281 247.542969 946.902344 249.378906 950.929688 251.152344 C 966.703125 258.101562 983.011719 265.289062 999.808594 270.140625 C 1024.082031 277.148438 1045.988281 278.054688 1064.917969 272.851562 C 1084.15625 267.5625 1100.148438 254.984375 1107.695312 239.207031 C 1108.789062 236.921875 1109.699219 234.566406 1110.429688 232.140625 C 1114.390625 218.941406 1112.863281 203.296875 1105.882812 185.632812 C 1101.957031 175.699219 1096.261719 166.167969 1090.753906 156.953125 L 1089.164062 154.289062 C 1085.300781 147.804688 1082.324219 142.40625 1079.792969 137.3125 C 1067.996094 113.546875 1061.851562 87.675781 1062.027344 62.496094 C 1062.042969 60.785156 1062.082031 59.195312 1062.152344 57.640625 C 1062.570312 48.339844 1064.160156 40.605469 1067.007812 34.003906 C 1071.191406 24.304688 1078.308594 16.546875 1084.042969 10.867188 C 1095.847656 -0.835938 1108.953125 -10.449219 1122.992188 -17.710938 L 1123.269531 -17.179688 C 1109.285156 -9.945312 1096.226562 -0.363281 1084.464844 11.292969 C 1078.769531 16.933594 1071.703125 24.636719 1067.558594 34.242188 C 1064.738281 40.773438 1063.167969 48.4375 1062.75 57.667969 C 1062.679688 59.214844 1062.640625 60.792969 1062.628906 62.496094 C 1062.453125 87.585938 1068.574219 113.363281 1080.328125 137.042969 C 1082.851562 142.125 1085.824219 147.507812 1089.679688 153.980469 L 1091.269531 156.644531 C 1096.789062 165.882812 1102.496094 175.433594 1106.441406 185.414062 C 1113.472656 203.203125 1115.007812 218.984375 1111.003906 232.3125 C 1110.265625 234.769531 1109.339844 237.152344 1108.234375 239.464844 C 1100.617188 255.398438 1084.480469 268.09375 1065.074219 273.429688 C 1046.03125 278.667969 1024.019531 277.753906 999.640625 270.714844 C 982.804688 265.851562 966.476562 258.65625 950.683594 251.699219 C 946.660156 249.925781 942.496094 248.09375 938.390625 246.324219 C 935.898438 245.253906 933.613281 244.289062 931.410156 243.371094 C 913.335938 235.863281 891.945312 228.183594 870.332031 228.179688 C 867.042969 228.179688 863.761719 228.351562 860.492188 228.691406 C 852.894531 229.488281 845.523438 231.246094 838.378906 233.960938 C 831.238281 236.675781 824.558594 240.257812 818.351562 244.707031 C 809.28125 251.171875 801.910156 259.070312 796.429688 268.191406 C 791.824219 275.875 788.097656 285.167969 784.699219 297.4375 C 781.246094 309.925781 778.761719 322.855469 776.359375 335.359375 C 775.660156 338.988281 774.964844 342.613281 774.246094 346.234375 C 771.730469 358.929688 769.40625 368.578125 766.710938 377.523438 C 757.210938 408.828125 742.410156 430.769531 722.710938 442.746094 Z M 722.710938 442.746094 "/><path style=" stroke:none;fill-rule:nonzero;fill:#b3b3b3;fill-opacity:1;" d="M 723.460938 443.164062 L 723.183594 442.628906 C 742.878906 432.515625 758.730469 411.558594 769.03125 382.027344 C 772.082031 373.210938 774.808594 363.285156 777.367188 351.683594 C 778.539062 346.402344 779.652344 341.007812 780.730469 335.792969 C 782.910156 325.253906 785.164062 314.359375 788 303.765625 C 791.316406 291.40625 794.691406 282.429688 798.945312 274.65625 C 804.105469 265.296875 810.804688 257.214844 819.046875 250.410156 C 830.761719 240.628906 844.445312 234.179688 858.609375 231.761719 C 861.78125 231.214844 864.972656 230.855469 868.183594 230.679688 C 888.683594 229.578125 909.339844 236.457031 928.609375 244.058594 C 930.921875 244.96875 933.226562 245.890625 935.527344 246.824219 C 938.753906 248.132812 941.972656 249.449219 945.1875 250.78125 C 961.65625 257.554688 978.683594 264.558594 996.152344 269.09375 C 1020.03125 275.289062 1041.585938 275.824219 1060.207031 270.683594 C 1078.765625 265.570312 1094.472656 253.679688 1102.226562 238.875 C 1103.359375 236.714844 1104.324219 234.484375 1105.121094 232.183594 C 1109.492188 219.546875 1108.6875 204.480469 1102.730469 187.410156 C 1099.039062 176.828125 1093.046875 166.75 1087.253906 157.003906 L 1086.046875 154.972656 C 1082.160156 148.414062 1079.117188 142.851562 1076.472656 137.46875 C 1064.3125 112.6875 1058.167969 86.046875 1058.707031 60.429688 C 1058.742188 58.714844 1058.808594 57.035156 1058.90625 55.441406 C 1059.46875 46.019531 1061.179688 38.082031 1064.132812 31.175781 C 1067.515625 23.269531 1072.964844 15.625 1081.28125 7.113281 C 1093.335938 -5.234375 1106.847656 -15.042969 1121.441406 -22.046875 L 1121.699219 -21.503906 C 1107.171875 -14.535156 1093.71875 -4.765625 1081.710938 7.535156 C 1073.449219 15.992188 1068.039062 23.578125 1064.6875 31.414062 C 1061.757812 38.253906 1060.0625 46.125 1059.503906 55.476562 C 1059.40625 57.0625 1059.339844 58.734375 1059.304688 60.441406 C 1058.769531 85.964844 1064.890625 112.507812 1077.011719 137.203125 C 1079.648438 142.574219 1082.683594 148.121094 1086.5625 154.667969 L 1087.769531 156.699219 C 1093.578125 166.46875 1099.585938 176.574219 1103.296875 187.210938 C 1109.300781 204.414062 1110.105469 219.609375 1105.6875 232.378906 C 1104.878906 234.707031 1103.902344 236.964844 1102.757812 239.152344 C 1094.929688 254.101562 1079.082031 266.101562 1060.367188 271.261719 C 1041.636719 276.429688 1019.984375 275.894531 996 269.675781 C 978.496094 265.125 961.445312 258.113281 944.960938 251.332031 C 941.742188 250.011719 938.523438 248.691406 935.300781 247.378906 C 933.003906 246.449219 930.699219 245.527344 928.386719 244.613281 C 909.183594 237.042969 888.601562 230.183594 868.214844 231.277344 C 865.027344 231.449219 861.859375 231.808594 858.714844 232.351562 C 844.648438 234.753906 831.066406 241.15625 819.429688 250.871094 C 811.246094 257.625 804.59375 265.652344 799.472656 274.945312 C 795.242188 282.671875 791.882812 291.605469 788.582031 303.917969 C 785.746094 314.496094 783.496094 325.382812 781.320312 335.910156 C 780.242188 341.128906 779.125 346.527344 777.953125 351.8125 C 775.390625 363.4375 772.65625 373.382812 769.601562 382.222656 C 759.246094 411.902344 743.292969 432.976562 723.460938 443.164062 Z M 723.460938 443.164062 "/><path style=" stroke:none;fill-rule:nonzero;fill:#b3b3b3;fill-opacity:1;" d="M 724.203125 443.578125 L 723.972656 443.027344 C 749.359375 432.34375 764.066406 406.5 771.929688 386.703125 C 775.394531 377.898438 778.390625 368.261719 781.078125 357.25 C 782.796875 350.253906 784.363281 343.082031 785.878906 336.144531 C 787.734375 327.640625 789.65625 318.84375 791.882812 310.253906 C 794.019531 302.003906 797.097656 291.273438 801.976562 281.433594 C 806.605469 272.128906 812.640625 263.851562 820.089844 256.605469 C 830.945312 245.96875 843.632812 238.644531 856.792969 235.429688 C 859.835938 234.679688 862.921875 234.132812 866.039062 233.78125 C 885.445312 231.632812 906.121094 238.046875 925.578125 245.296875 C 927.867188 246.148438 930.148438 247.007812 932.425781 247.875 C 934.570312 248.691406 936.714844 249.507812 938.855469 250.328125 C 956.210938 256.96875 974.160156 263.835938 992.496094 268.050781 C 1015.972656 273.433594 1037.167969 273.589844 1055.5 268.515625 C 1073.65625 263.496094 1088.699219 252.574219 1096.765625 238.542969 C 1097.933594 236.507812 1098.949219 234.402344 1099.8125 232.222656 C 1104.640625 220.058594 1104.558594 205.582031 1099.578125 189.1875 C 1096.203125 178.085938 1090 167.601562 1084.003906 157.464844 L 1082.933594 155.65625 C 1079.074219 149.125 1075.878906 143.230469 1073.15625 137.632812 C 1060.632812 111.839844 1054.488281 84.429688 1055.382812 58.367188 C 1055.445312 56.605469 1055.535156 54.882812 1055.660156 53.246094 C 1056.363281 43.714844 1058.195312 35.574219 1061.261719 28.351562 C 1064.761719 20.101562 1070.410156 11.929688 1078.523438 3.363281 C 1090.808594 -9.617188 1104.726562 -19.625 1119.890625 -26.378906 L 1120.132812 -25.828125 C 1105.042969 -19.109375 1091.191406 -9.148438 1078.960938 3.773438 C 1070.894531 12.289062 1065.285156 20.402344 1061.8125 28.585938 C 1058.773438 35.746094 1056.957031 43.828125 1056.257812 53.289062 C 1056.136719 54.921875 1056.042969 56.632812 1055.984375 58.386719 C 1055.089844 84.351562 1061.21875 111.664062 1073.699219 137.367188 C 1076.410156 142.953125 1079.601562 148.835938 1083.453125 155.351562 L 1084.519531 157.160156 C 1090.539062 167.328125 1096.757812 177.839844 1100.15625 189.011719 C 1105.179688 205.539062 1105.25 220.152344 1100.375 232.445312 C 1099.5 234.648438 1098.46875 236.78125 1097.285156 238.839844 C 1089.140625 253.007812 1073.96875 264.03125 1055.660156 269.09375 C 1037.238281 274.195312 1015.9375 274.039062 992.363281 268.632812 C 973.984375 264.410156 956.019531 257.535156 938.640625 250.886719 C 936.5 250.066406 934.355469 249.25 932.214844 248.433594 C 929.9375 247.570312 927.65625 246.710938 925.371094 245.855469 C 905.984375 238.632812 885.386719 232.242188 866.105469 234.375 C 863.011719 234.722656 859.957031 235.265625 856.933594 236.011719 C 843.882812 239.199219 831.289062 246.46875 820.511719 257.035156 C 813.113281 264.234375 807.113281 272.453125 802.519531 281.699219 C 797.664062 291.488281 794.59375 302.179688 792.464844 310.402344 C 790.242188 318.980469 788.324219 327.773438 786.464844 336.273438 C 784.949219 343.210938 783.382812 350.386719 781.664062 357.394531 C 778.96875 368.429688 775.964844 378.089844 772.488281 386.921875 C 764.582031 406.828125 749.785156 432.816406 724.203125 443.578125 Z M 724.203125 443.578125 "/><path style=" stroke:none;fill-rule:nonzero;fill:#b3b3b3;fill-opacity:1;" d="M 724.949219 443.996094 L 724.757812 443.425781 C 750.652344 434.902344 766.277344 410.417969 774.828125 391.378906 C 778.648438 382.796875 782 373.1875 784.792969 362.816406 C 787.164062 354.050781 789.210938 345.015625 791.1875 336.28125 C 792.636719 329.871094 794.140625 323.238281 795.761719 316.742188 C 797.941406 308.027344 800.742188 297.820312 805.011719 288.210938 C 809.125 278.941406 814.5 270.472656 821.136719 262.804688 C 831.226562 251.09375 842.609375 243.121094 854.972656 239.101562 C 857.890625 238.148438 860.863281 237.410156 863.890625 236.886719 C 883.164062 233.574219 904.285156 240.136719 922.546875 246.539062 C 924.8125 247.332031 927.070312 248.128906 929.324219 248.925781 L 931.703125 249.769531 C 950.214844 256.335938 969.359375 263.125 988.84375 267.007812 C 1011.898438 271.585938 1032.742188 271.363281 1050.796875 266.351562 C 1068.292969 261.5 1083.054688 251.246094 1091.300781 238.210938 C 1092.507812 236.304688 1093.578125 234.324219 1094.511719 232.265625 C 1099.84375 220.507812 1100.492188 206.609375 1096.429688 190.964844 C 1093.433594 179.4375 1087.074219 168.648438 1080.921875 158.214844 L 1079.816406 156.34375 C 1075.925781 149.730469 1072.664062 143.664062 1069.84375 137.792969 C 1056.964844 111 1050.8125 82.820312 1052.0625 56.304688 C 1052.144531 54.511719 1052.265625 52.746094 1052.410156 51.050781 C 1053.242188 41.558594 1055.25 32.972656 1058.386719 25.523438 C 1062.058594 16.808594 1067.746094 8.332031 1075.769531 -0.390625 C 1088.09375 -13.800781 1102.8125 -24.285156 1118.339844 -30.710938 L 1118.570312 -30.15625 C 1103.125 -23.765625 1088.480469 -13.332031 1076.210938 0.0195312 C 1068.234375 8.683594 1062.585938 17.105469 1058.941406 25.757812 C 1055.828125 33.148438 1053.832031 41.675781 1053.011719 51.101562 C 1052.863281 52.789062 1052.746094 54.546875 1052.664062 56.332031 C 1051.421875 82.746094 1057.546875 110.828125 1070.382812 137.53125 C 1073.199219 143.386719 1076.453125 149.441406 1080.335938 156.039062 L 1081.441406 157.910156 C 1087.613281 168.378906 1093.996094 179.203125 1097.011719 190.8125 C 1101.109375 206.59375 1100.453125 220.625 1095.058594 232.511719 C 1094.113281 234.59375 1093.03125 236.601562 1091.808594 238.53125 C 1083.484375 251.6875 1068.597656 262.039062 1050.957031 266.929688 C 1032.808594 271.964844 1011.875 272.191406 988.726562 267.59375 C 969.203125 263.703125 950.035156 256.90625 931.5 250.332031 L 929.125 249.492188 C 926.871094 248.691406 924.613281 247.898438 922.351562 247.101562 C 904.160156 240.730469 883.171875 234.1875 863.992188 237.476562 C 860.996094 237.992188 858.050781 238.726562 855.160156 239.671875 C 842.902344 243.652344 831.609375 251.570312 821.59375 263.195312 C 814.996094 270.820312 809.652344 279.238281 805.5625 288.453125 C 801.3125 298.019531 798.515625 308.195312 796.347656 316.886719 C 794.726562 323.375 793.226562 330.003906 791.773438 336.410156 C 789.796875 345.152344 787.75 354.195312 785.375 362.972656 C 782.574219 373.371094 779.210938 383.007812 775.378906 391.621094 C 766.777344 410.773438 751.046875 435.402344 724.949219 443.996094 Z M 724.949219 443.996094 "/><path style=" stroke:none;fill-rule:nonzero;fill:#b3b3b3;fill-opacity:1;" d="M 725.6875 444.410156 L 725.550781 443.824219 C 746.132812 438.902344 764.664062 421.9375 777.726562 396.054688 C 782.132812 387.148438 785.726562 377.925781 788.503906 368.386719 C 791.652344 357.785156 794.179688 346.792969 796.625 336.160156 C 797.597656 331.921875 798.605469 327.539062 799.640625 323.230469 C 801.84375 314.066406 804.386719 304.304688 808.042969 294.988281 C 811.660156 285.730469 816.375 277.070312 822.183594 269.003906 C 831.304688 256.328125 841.722656 247.503906 853.148438 242.777344 C 855.9375 241.617188 858.804688 240.6875 861.742188 239.988281 C 880.03125 235.695312 900.3125 241.484375 919.519531 247.777344 L 926.222656 249.976562 C 947.027344 256.800781 965.820312 262.714844 985.1875 265.964844 C 1007.800781 269.742188 1028.292969 269.140625 1046.089844 264.183594 C 1063.199219 259.425781 1077.316406 250.085938 1085.839844 237.878906 C 1087.082031 236.097656 1088.207031 234.238281 1089.207031 232.308594 C 1095.03125 221.0625 1096.4375 207.382812 1093.277344 192.742188 C 1090.710938 180.851562 1084.226562 169.824219 1077.953125 159.160156 L 1076.703125 157.027344 C 1072.773438 150.328125 1069.445312 144.089844 1066.527344 137.953125 C 1053.296875 110.164062 1047.148438 81.214844 1048.738281 54.242188 C 1048.847656 52.417969 1048.992188 50.605469 1049.164062 48.855469 C 1050.125 39.28125 1052.257812 30.480469 1055.515625 22.699219 C 1059.308594 13.625 1065.195312 4.59375 1073.011719 -4.140625 C 1085.542969 -18.164062 1100.679688 -28.847656 1116.785156 -35.039062 L 1117 -34.480469 C 1100.984375 -28.324219 1085.929688 -17.691406 1073.457031 -3.742188 C 1065.6875 4.945312 1059.835938 13.917969 1056.070312 22.929688 C 1052.835938 30.660156 1050.714844 39.402344 1049.761719 48.914062 C 1049.589844 50.660156 1049.445312 52.464844 1049.339844 54.277344 C 1047.753906 81.152344 1053.882812 109.996094 1067.070312 137.695312 C 1069.980469 143.816406 1073.300781 150.039062 1077.222656 156.722656 L 1078.472656 158.851562 C 1084.765625 169.558594 1091.277344 180.625 1093.863281 192.613281 C 1097.054688 207.390625 1095.628906 221.210938 1089.738281 232.582031 C 1088.726562 234.535156 1087.589844 236.417969 1086.332031 238.222656 C 1077.730469 250.539062 1063.496094 259.964844 1046.25 264.761719 C 1028.367188 269.742188 1007.789062 270.347656 985.085938 266.554688 C 965.679688 263.296875 946.863281 257.378906 926.039062 250.546875 L 919.332031 248.347656 C 900.207031 242.078125 880.019531 236.316406 861.882812 240.570312 C 858.972656 241.261719 856.140625 242.179688 853.378906 243.328125 C 842.054688 248.011719 831.726562 256.769531 822.671875 269.355469 C 816.890625 277.378906 812.203125 285.996094 808.601562 295.203125 C 804.960938 304.484375 802.425781 314.226562 800.226562 323.367188 C 799.191406 327.671875 798.183594 332.054688 797.210938 336.292969 C 794.761719 346.933594 792.234375 357.9375 789.082031 368.554688 C 786.292969 378.128906 782.6875 387.382812 778.265625 396.324219 C 765.121094 422.371094 746.449219 439.445312 725.6875 444.410156 Z M 725.6875 444.410156 "/><path style=" stroke:none;fill-rule:nonzero;fill:#b3b3b3;fill-opacity:1;" d="M 726.445312 444.820312 L 726.429688 444.820312 L 726.339844 444.226562 L 726.355469 444.226562 C 747.304688 441.070312 766.578125 425.625 780.628906 400.730469 C 785.375 392.1875 789.238281 383.257812 792.21875 373.949219 C 796.277344 361.445312 799.261719 348.363281 802.148438 335.710938 C 802.605469 333.714844 803.0625 331.714844 803.523438 329.71875 C 805.609375 320.664062 807.914062 311.042969 811.074219 301.765625 C 814.210938 292.492188 818.261719 283.640625 823.234375 275.207031 C 831.3125 261.53125 840.765625 251.855469 851.328125 246.449219 C 853.984375 245.085938 856.738281 243.964844 859.59375 243.09375 C 878.378906 237.410156 900.402344 244.117188 916.484375 249.015625 C 918.699219 249.691406 920.910156 250.359375 923.121094 251.027344 C 940.574219 256.285156 960.921875 262.125 981.53125 264.917969 C 1003.984375 267.945312 1023.566406 266.996094 1041.382812 262.015625 C 1057.882812 257.410156 1071.730469 248.71875 1080.375 237.546875 C 1081.660156 235.886719 1082.835938 234.152344 1083.902344 232.347656 C 1090.359375 221.421875 1092.511719 208.34375 1090.125 194.519531 C 1088.019531 182.308594 1081.433594 171.085938 1075.066406 160.234375 L 1073.585938 157.710938 C 1069.621094 150.925781 1066.226562 144.515625 1063.210938 138.117188 C 1049.636719 109.335938 1043.484375 79.617188 1045.414062 52.175781 C 1045.546875 50.296875 1045.71875 48.441406 1045.917969 46.65625 C 1047 37.019531 1049.257812 28.007812 1052.640625 19.871094 C 1056.613281 10.300781 1062.539062 0.957031 1070.25 -7.894531 C 1082.984375 -22.523438 1098.539062 -33.410156 1115.230469 -39.371094 L 1115.433594 -38.808594 C 1098.839844 -32.878906 1083.371094 -22.054688 1070.703125 -7.5 C 1063.035156 1.304688 1057.144531 10.589844 1053.195312 20.101562 C 1049.835938 28.1875 1047.589844 37.144531 1046.515625 46.722656 C 1046.316406 48.5 1046.148438 50.347656 1046.015625 52.21875 C 1044.089844 79.558594 1050.222656 109.171875 1063.75 137.859375 C 1066.761719 144.242188 1070.148438 150.636719 1074.105469 157.40625 L 1075.582031 159.929688 C 1081.980469 170.828125 1088.59375 182.097656 1090.71875 194.414062 C 1093.125 208.378906 1090.949219 221.601562 1084.417969 232.648438 C 1083.339844 234.476562 1082.148438 236.230469 1080.851562 237.910156 C 1072.128906 249.1875 1058.167969 257.953125 1041.542969 262.59375 C 1023.648438 267.597656 1003.988281 268.550781 981.449219 265.511719 C 960.796875 262.714844 940.425781 256.863281 922.949219 251.597656 C 920.738281 250.933594 918.523438 250.261719 916.3125 249.589844 C 900.300781 244.710938 878.375 238.03125 859.769531 243.667969 C 856.949219 244.527344 854.226562 245.632812 851.601562 246.984375 C 841.144531 252.335938 831.773438 261.933594 823.75 275.511719 C 818.800781 283.90625 814.765625 292.722656 811.644531 301.957031 C 808.492188 311.210938 806.191406 320.8125 804.109375 329.851562 C 803.648438 331.847656 803.191406 333.847656 802.734375 335.84375 C 799.84375 348.507812 796.859375 361.601562 792.792969 374.132812 C 789.800781 383.480469 785.921875 392.445312 781.152344 401.023438 C 767.007812 426.082031 747.578125 441.636719 726.445312 444.820312 Z M 726.445312 444.820312 "/><path style=" stroke:none;fill-rule:nonzero;fill:#b3b3b3;fill-opacity:1;" d="M 732 444.71875 C 730.417969 444.953125 728.808594 445.125 727.167969 445.230469 L 727.132812 444.632812 C 755.867188 442.824219 774.804688 419.28125 783.527344 405.40625 C 788.613281 397.230469 792.75 388.601562 795.933594 379.515625 C 801.046875 365.046875 804.421875 349.726562 807.402344 336.207031 L 807.519531 335.667969 C 809.5 326.683594 811.546875 317.398438 814.105469 308.542969 C 816.953125 298.722656 820.375 289.59375 824.28125 281.410156 C 831.351562 266.507812 839.601562 256.277344 849.507812 250.128906 C 852.023438 248.558594 854.671875 247.25 857.445312 246.199219 C 875.253906 239.527344 896.433594 245.476562 913.453125 250.253906 C 915.640625 250.871094 917.832031 251.476562 920.019531 252.078125 C 936.96875 256.714844 957.097656 261.746094 977.875 263.871094 C 999.824219 266.109375 1019.058594 264.789062 1036.675781 259.847656 C 1047.949219 256.691406 1063.738281 250.199219 1074.917969 237.210938 C 1076.238281 235.671875 1077.46875 234.066406 1078.601562 232.382812 C 1085.65625 221.933594 1088.628906 209.113281 1086.976562 196.292969 C 1085.367188 183.800781 1078.6875 172.410156 1072.230469 161.398438 C 1071.640625 160.394531 1071.054688 159.394531 1070.472656 158.394531 C 1066.519531 151.605469 1062.960938 144.835938 1059.894531 138.277344 C 1045.980469 108.511719 1039.824219 78.023438 1042.09375 50.113281 C 1042.25 48.210938 1042.445312 46.308594 1042.671875 44.460938 C 1043.804688 35.003906 1046.167969 25.867188 1049.765625 17.046875 C 1053.925781 6.960938 1059.890625 -2.691406 1067.492188 -11.644531 C 1080.421875 -26.882812 1096.394531 -37.96875 1113.679688 -43.703125 L 1113.867188 -43.132812 C 1096.6875 -37.433594 1080.808594 -26.410156 1067.953125 -11.257812 C 1060.390625 -2.355469 1054.457031 7.246094 1050.320312 17.277344 C 1046.746094 26.046875 1044.394531 35.132812 1043.269531 44.535156 C 1043.039062 46.375 1042.847656 48.269531 1042.691406 50.164062 C 1040.429688 77.96875 1046.566406 108.351562 1060.4375 138.023438 C 1063.496094 144.566406 1067.046875 151.320312 1070.992188 158.09375 C 1071.570312 159.09375 1072.15625 160.09375 1072.746094 161.09375 C 1079.234375 172.160156 1085.945312 183.601562 1087.570312 196.214844 C 1089.242188 209.183594 1086.234375 222.148438 1079.097656 232.71875 C 1077.953125 234.417969 1076.710938 236.046875 1075.371094 237.601562 C 1064.09375 250.703125 1048.191406 257.246094 1036.835938 260.425781 C 1019.144531 265.390625 999.839844 266.710938 977.8125 264.46875 C 956.992188 262.339844 936.832031 257.300781 919.863281 252.65625 C 917.667969 252.054688 915.480469 251.449219 913.292969 250.832031 C 896.355469 246.078125 875.277344 240.15625 857.65625 246.761719 C 854.917969 247.796875 852.308594 249.085938 849.824219 250.636719 C 840.019531 256.722656 831.84375 266.871094 824.824219 281.664062 C 820.933594 289.824219 817.519531 298.921875 814.683594 308.707031 C 812.128906 317.542969 810.085938 326.824219 808.105469 335.792969 L 807.988281 336.335938 C 805.003906 349.871094 801.625 365.210938 796.5 379.714844 C 793.300781 388.839844 789.148438 397.511719 784.035156 405.722656 C 775.75 418.90625 758.304688 440.757812 732 444.71875 Z M 732 444.71875 "/><path style=" stroke:none;fill-rule:nonzero;fill:#b3b3b3;fill-opacity:1;" d="M 737.074219 445.054688 C 734.035156 445.511719 730.980469 445.707031 727.910156 445.636719 L 727.921875 445.039062 C 749.242188 445.535156 770.566406 432.796875 786.429688 410.082031 C 791.847656 402.28125 796.253906 393.949219 799.648438 385.078125 C 804.660156 372.035156 807.921875 358.703125 811.28125 342.695312 C 811.785156 340.300781 812.28125 337.90625 812.769531 335.511719 C 814.140625 328.863281 815.554688 321.988281 817.140625 315.320312 C 819.632812 304.847656 822.3125 295.785156 825.335938 287.613281 C 831.207031 271.675781 838.515625 260.617188 847.6875 253.804688 C 850.0625 252.035156 852.601562 250.535156 855.300781 249.308594 C 872.179688 241.683594 892.441406 246.878906 910.316406 251.464844 L 910.425781 251.496094 C 912.585938 252.046875 914.75 252.589844 916.917969 253.125 C 939.167969 258.59375 957.375 261.675781 974.21875 262.828125 C 995.613281 264.28125 1014.503906 262.597656 1031.96875 257.679688 C 1047.851562 253.210938 1060.464844 246.210938 1069.460938 236.875 C 1070.820312 235.460938 1072.101562 233.976562 1073.304688 232.421875 C 1081.113281 222.304688 1084.851562 210.105469 1083.828125 198.070312 C 1082.742188 185.320312 1075.972656 173.777344 1069.421875 162.613281 C 1068.730469 161.433594 1068.042969 160.253906 1067.359375 159.082031 C 1063.367188 152.207031 1059.738281 145.257812 1056.578125 138.4375 C 1042.324219 107.691406 1036.167969 76.4375 1038.773438 48.050781 C 1038.953125 46.105469 1039.171875 44.160156 1039.429688 42.265625 C 1040.125 36.984375 1041.191406 31.78125 1042.625 26.652344 C 1044.0625 21.519531 1045.847656 16.515625 1047.988281 11.640625 C 1050.128906 6.761719 1052.601562 2.058594 1055.410156 -2.46875 C 1058.214844 -7 1061.324219 -11.308594 1064.738281 -15.398438 C 1077.859375 -31.238281 1094.246094 -42.523438 1112.128906 -48.03125 L 1112.304688 -47.457031 C 1094.535156 -41.984375 1078.246094 -30.765625 1065.199219 -15.015625 C 1061.804688 -10.945312 1058.710938 -6.660156 1055.921875 -2.15625 C 1053.128906 2.351562 1050.667969 7.027344 1048.539062 11.878906 C 1046.410156 16.734375 1044.632812 21.710938 1043.207031 26.8125 C 1041.777344 31.914062 1040.71875 37.09375 1040.023438 42.347656 C 1039.769531 44.230469 1039.550781 46.167969 1039.371094 48.105469 C 1036.777344 76.386719 1042.914062 107.535156 1057.121094 138.1875 C 1060.277344 144.992188 1063.894531 151.917969 1067.878906 158.78125 C 1068.558594 159.953125 1069.246094 161.128906 1069.941406 162.308594 C 1076.523438 173.53125 1083.328125 185.132812 1084.425781 198.019531 C 1085.460938 210.203125 1081.679688 222.554688 1073.777344 232.789062 C 1072.566406 234.363281 1071.269531 235.863281 1069.890625 237.292969 C 1060.824219 246.707031 1048.121094 253.761719 1032.132812 258.261719 C 1014.597656 263.199219 995.640625 264.886719 974.175781 263.429688 C 957.300781 262.277344 939.058594 259.1875 916.777344 253.710938 C 914.605469 253.175781 912.4375 252.632812 910.273438 252.078125 L 910.167969 252.050781 C 892.386719 247.488281 872.234375 242.316406 855.546875 249.855469 C 852.886719 251.066406 850.386719 252.542969 848.046875 254.289062 C 838.972656 261.027344 831.726562 271.996094 825.898438 287.820312 C 822.886719 295.972656 820.210938 305.011719 817.726562 315.460938 C 816.144531 322.121094 814.730469 328.988281 813.359375 335.632812 C 812.867188 338.027344 812.371094 340.425781 811.871094 342.820312 C 808.503906 358.855469 805.234375 372.214844 800.207031 385.296875 C 796.796875 394.210938 792.371094 402.585938 786.925781 410.425781 C 773.214844 430.054688 755.4375 442.289062 737.074219 445.054688 Z M 737.074219 445.054688 "/><path style=" stroke:none;fill-rule:nonzero;fill:#b3b3b3;fill-opacity:1;" d="M 742.613281 445.75 C 737.972656 446.453125 733.316406 446.550781 728.648438 446.042969 L 728.714844 445.445312 C 762.777344 449.136719 791.289062 419.625 803.359375 390.644531 C 811.171875 371.894531 814.851562 351.503906 818.410156 331.78125 C 820.671875 319.242188 823.011719 306.28125 826.390625 293.816406 C 832.175781 272.488281 840.929688 258.945312 853.152344 252.417969 C 869.167969 243.867188 888.859375 248.4375 906.234375 252.46875 L 907.390625 252.734375 C 956.023438 264 994.113281 264.886719 1027.261719 255.515625 C 1042.9375 251.085938 1054.957031 244.878906 1064 236.542969 C 1074.96875 226.4375 1081.203125 212.71875 1080.675781 199.84375 C 1080.148438 186.855469 1073.273438 175.160156 1066.628906 163.851562 C 1065.828125 162.484375 1065.027344 161.125 1064.238281 159.765625 C 1047.664062 131.121094 1029.339844 87.101562 1036.179688 40.070312 C 1039.183594 19.410156 1047.832031 -0.976562 1060.539062 -17.332031 C 1074.074219 -34.757812 1091.375 -46.871094 1110.574219 -52.363281 L 1110.738281 -51.785156 C 1072.921875 -40.96875 1043.195312 -4.019531 1036.773438 40.15625 C 1029.960938 87.015625 1048.234375 130.898438 1064.761719 159.464844 C 1065.546875 160.824219 1066.347656 162.183594 1067.148438 163.546875 C 1073.832031 174.917969 1080.742188 186.679688 1081.277344 199.820312 C 1081.808594 212.867188 1075.503906 226.761719 1064.410156 236.984375 C 1055.292969 245.386719 1043.195312 251.636719 1027.425781 256.09375 C 994.175781 265.492188 955.988281 264.609375 907.253906 253.320312 L 906.101562 253.054688 C 888.828125 249.046875 869.25 244.503906 853.433594 252.949219 C 841.367188 259.394531 832.710938 272.8125 826.96875 293.976562 C 823.597656 306.410156 821.257812 319.363281 819 331.886719 C 815.4375 351.640625 811.75 372.066406 803.914062 390.878906 C 793.449219 416.003906 770.679688 441.527344 742.613281 445.75 Z M 742.613281 445.75 "/><path style=" stroke:none;fill-rule:nonzero;fill:#b3b3b3;fill-opacity:1;" d="M 735.664062 442.933594 C 732.371094 443.433594 729.0625 443.617188 725.734375 443.476562 L 725.761719 442.878906 C 757.6875 444.238281 786.207031 414.722656 799.195312 386.730469 C 800.820312 383.222656 802.390625 379.492188 803.863281 375.636719 C 809.371094 361.21875 813.070312 346.203125 816.652344 331.683594 C 819.625 319.617188 822.703125 307.136719 826.769531 295.292969 C 829.667969 286.859375 832.839844 280.035156 836.457031 274.425781 C 841.582031 266.457031 847.582031 260.921875 854.804688 257.503906 C 870.296875 250.199219 888.398438 254.179688 905.902344 258.03125 C 906.917969 258.257812 907.929688 258.476562 908.941406 258.699219 C 928.777344 263.019531 947.824219 265.464844 965.558594 265.972656 C 988.210938 266.617188 1009.15625 263.960938 1027.804688 258.070312 C 1043.046875 253.257812 1054.640625 246.894531 1063.246094 238.621094 C 1073.757812 228.511719 1079.71875 214.9375 1079.195312 202.3125 C 1078.636719 189.011719 1071.632812 177.042969 1064.859375 165.472656 C 1064.167969 164.292969 1063.480469 163.113281 1062.796875 161.9375 C 1049.65625 139.234375 1040.773438 117.214844 1036.402344 96.488281 C 1032.453125 77.769531 1031.972656 59.378906 1034.972656 41.832031 C 1036.972656 30.222656 1040.601562 19.148438 1045.859375 8.613281 C 1060.207031 -20.222656 1084.371094 -40.796875 1112.160156 -47.832031 L 1112.308594 -47.25 C 1084.6875 -40.257812 1060.664062 -19.796875 1046.398438 8.878906 C 1041.164062 19.363281 1037.554688 30.382812 1035.566406 41.929688 C 1032.578125 59.40625 1033.054688 77.71875 1036.988281 96.363281 C 1041.347656 117.027344 1050.207031 138.988281 1063.316406 161.636719 C 1063.996094 162.8125 1064.683594 163.988281 1065.375 165.167969 C 1072.1875 176.804688 1079.230469 188.835938 1079.792969 202.285156 C 1080.328125 215.082031 1074.296875 228.828125 1063.664062 239.054688 C 1054.988281 247.390625 1043.320312 253.800781 1027.984375 258.644531 C 1009.273438 264.550781 988.265625 267.222656 965.539062 266.570312 C 947.769531 266.066406 928.6875 263.617188 908.8125 259.285156 C 907.804688 259.066406 906.789062 258.84375 905.773438 258.617188 C 888.367188 254.789062 870.371094 250.832031 855.0625 258.046875 C 847.945312 261.414062 842.023438 266.878906 836.960938 274.753906 C 833.371094 280.316406 830.222656 287.101562 827.335938 295.488281 C 823.28125 307.308594 820.207031 319.773438 817.234375 331.828125 C 813.652344 346.363281 809.945312 361.398438 804.421875 375.851562 C 802.949219 379.71875 801.371094 383.464844 799.742188 386.980469 C 792.527344 402.527344 781.730469 416.703125 769.335938 426.898438 C 758.542969 435.777344 747.066406 441.21875 735.664062 442.933594 Z M 735.664062 442.933594 "/><path style=" stroke:none;fill-rule:nonzero;fill:#b3b3b3;fill-opacity:1;" d="M 728.761719 440.371094 C 726.792969 440.667969 724.8125 440.847656 722.824219 440.914062 L 722.804688 440.3125 C 752.753906 439.367188 780.65625 410.753906 795.027344 382.8125 C 796.769531 379.429688 798.480469 375.832031 800.117188 372.117188 C 805.980469 358.828125 810.339844 345.265625 814.558594 332.144531 C 818.523438 319.8125 822.269531 308.164062 827.148438 296.769531 C 830.46875 289.042969 833.929688 282.816406 837.730469 277.738281 C 843.140625 270.511719 849.265625 265.558594 856.457031 262.589844 C 871.402344 256.476562 888.722656 260.109375 905.476562 263.621094 C 907.15625 263.972656 908.828125 264.324219 910.484375 264.664062 C 929.589844 268.5625 948.578125 270.511719 966.917969 270.453125 C 989.265625 270.394531 1009.933594 267.089844 1028.347656 260.625 C 1043.136719 255.433594 1054.308594 248.917969 1062.488281 240.699219 C 1072.695312 230.441406 1078.246094 217.347656 1077.710938 204.78125 C 1077.121094 191.152344 1069.972656 178.902344 1063.0625 167.050781 C 1062.488281 166.070312 1061.917969 165.089844 1061.351562 164.113281 C 1047.457031 140.117188 1038.644531 118.644531 1034.402344 98.464844 C 1030.484375 79.8125 1030.269531 61.347656 1033.765625 43.589844 C 1036.054688 32.023438 1040 21.050781 1045.609375 10.671875 C 1060.734375 -17.402344 1085.570312 -37.078125 1113.746094 -43.300781 L 1113.875 -42.714844 C 1085.871094 -36.527344 1061.179688 -16.964844 1046.136719 10.957031 C 1040.558594 21.28125 1036.628906 32.199219 1034.355469 43.707031 C 1030.875 61.386719 1031.089844 79.769531 1034.988281 98.34375 C 1039.214844 118.457031 1048.007812 139.871094 1061.871094 163.8125 C 1062.4375 164.789062 1063.007812 165.769531 1063.578125 166.75 C 1070.527344 178.660156 1077.710938 190.980469 1078.308594 204.757812 C 1078.851562 217.492188 1073.242188 230.746094 1062.914062 241.121094 C 1054.667969 249.40625 1043.425781 255.972656 1028.542969 261.191406 C 1010.066406 267.675781 989.332031 270.996094 966.917969 271.054688 C 948.535156 271.113281 929.507812 269.160156 910.363281 265.25 C 908.707031 264.914062 907.03125 264.5625 905.351562 264.207031 C 888.6875 260.714844 871.457031 257.101562 856.683594 263.144531 C 849.597656 266.070312 843.554688 270.960938 838.210938 278.097656 C 834.441406 283.136719 831 289.320312 827.699219 297.007812 C 822.832031 308.371094 819.089844 320.007812 815.128906 332.328125 C 810.90625 345.460938 806.539062 359.042969 800.664062 372.359375 C 799.023438 376.082031 797.304688 379.691406 795.5625 383.089844 C 782.0625 409.332031 756.660156 436.167969 728.761719 440.371094 Z M 728.761719 440.371094 "/><path style=" stroke:none;fill-rule:nonzero;fill:#b3b3b3;fill-opacity:1;" d="M 721.542969 438.128906 C 721 438.207031 720.457031 438.28125 719.914062 438.34375 L 719.847656 437.746094 C 747.625 434.535156 775.53125 405.878906 790.863281 378.898438 C 792.710938 375.636719 794.566406 372.171875 796.371094 368.597656 C 802.378906 356.71875 807.210938 344.832031 811.886719 333.335938 C 816.894531 321.015625 821.628906 309.378906 827.53125 298.242188 C 831.277344 291.203125 835.03125 285.578125 839.011719 281.042969 C 844.707031 274.550781 850.953125 270.175781 858.109375 267.675781 C 872.429688 262.667969 888.910156 265.988281 904.84375 269.203125 C 907.210938 269.679688 909.65625 270.171875 912.035156 270.625 C 930.621094 274.160156 949.371094 275.597656 968.28125 274.933594 C 990.347656 274.175781 1010.738281 270.21875 1028.886719 263.179688 C 1043.414062 257.546875 1053.851562 251.0625 1061.734375 242.777344 C 1071.480469 232.519531 1076.761719 219.570312 1076.226562 207.25 C 1075.601562 193.269531 1068.296875 180.714844 1061.234375 168.570312 L 1059.90625 166.285156 C 1045.042969 140.628906 1036.558594 120.320312 1032.402344 100.441406 C 1028.507812 81.824219 1028.5625 63.289062 1032.558594 45.351562 C 1035.132812 33.816406 1039.398438 22.945312 1045.351562 12.734375 C 1061.246094 -14.597656 1086.753906 -33.371094 1115.332031 -38.769531 L 1115.445312 -38.179688 C 1087.035156 -32.8125 1061.679688 -14.144531 1045.871094 13.035156 C 1039.949219 23.191406 1035.707031 34.007812 1033.144531 45.480469 C 1029.167969 63.335938 1029.117188 81.785156 1032.992188 100.316406 C 1037.132812 120.132812 1045.597656 140.386719 1060.425781 165.984375 L 1061.753906 168.269531 C 1068.855469 180.472656 1076.195312 193.09375 1076.824219 207.222656 C 1077.371094 219.707031 1072.027344 232.816406 1062.167969 243.191406 C 1054.226562 251.542969 1043.71875 258.074219 1029.105469 263.742188 C 1010.894531 270.804688 990.4375 274.773438 968.300781 275.535156 C 949.347656 276.199219 930.554688 274.757812 911.921875 271.214844 C 909.542969 270.765625 907.09375 270.269531 904.726562 269.792969 C 888.871094 266.59375 872.472656 263.289062 858.308594 268.242188 C 851.253906 270.710938 845.085938 275.027344 839.460938 281.441406 C 835.515625 285.941406 831.785156 291.527344 828.0625 298.523438 C 822.175781 309.632812 817.449219 321.257812 812.441406 333.5625 C 807.761719 345.070312 802.925781 356.96875 796.90625 368.867188 C 795.097656 372.453125 793.242188 375.925781 791.386719 379.195312 C 776.277344 405.78125 748.988281 433.996094 721.542969 438.128906 Z M 721.542969 438.128906 "/><path style=" stroke:none;fill-rule:nonzero;fill:#b3b3b3;fill-opacity:1;" d="M 717.007812 435.773438 L 716.882812 435.183594 C 744.214844 429.40625 771.574219 399.140625 786.699219 374.980469 C 788.683594 371.804688 790.621094 368.566406 792.625 365.078125 C 798.421875 355.011719 803.402344 345.109375 808.21875 335.535156 C 814.605469 322.835938 820.636719 310.84375 827.917969 299.710938 C 832.144531 293.285156 836.074219 288.40625 840.289062 284.351562 C 846.257812 278.613281 852.625 274.820312 859.765625 272.761719 C 873.457031 268.804688 889.074219 271.855469 904.175781 274.808594 C 907.273438 275.414062 910.472656 276.039062 913.582031 276.589844 C 931.550781 279.761719 950.414062 280.714844 969.640625 279.414062 C 991.464844 277.957031 1011.578125 273.355469 1029.429688 265.734375 C 1043.46875 259.738281 1053.496094 253.101562 1060.976562 244.851562 C 1070.261719 234.601562 1075.28125 221.792969 1074.742188 209.714844 C 1074.085938 195.363281 1066.609375 182.488281 1059.378906 170.035156 L 1058.460938 168.457031 C 1047.421875 149.40625 1035.453125 126.664062 1030.40625 102.414062 C 1026.585938 84.074219 1026.914062 64.949219 1031.351562 47.109375 C 1034.214844 35.605469 1038.796875 24.835938 1045.101562 14.792969 C 1061.746094 -11.800781 1087.925781 -29.675781 1116.921875 -34.238281 L 1117.011719 -33.648438 C 1088.191406 -29.109375 1062.164062 -11.335938 1045.609375 15.113281 C 1039.34375 25.101562 1034.785156 35.8125 1031.933594 47.253906 C 1027.519531 65.007812 1027.191406 84.039062 1030.992188 102.289062 C 1036.023438 126.460938 1047.964844 149.148438 1058.980469 168.15625 L 1059.898438 169.734375 C 1067.164062 182.25 1074.675781 195.191406 1075.34375 209.6875 C 1075.886719 221.921875 1070.8125 234.886719 1061.421875 245.253906 C 1053.878906 253.574219 1043.789062 260.253906 1029.664062 266.285156 C 1011.753906 273.933594 991.570312 278.554688 969.679688 280.015625 C 950.40625 281.316406 931.496094 280.363281 913.476562 277.179688 C 910.363281 276.628906 907.160156 276.003906 904.0625 275.398438 C 889.03125 272.460938 873.484375 269.421875 859.933594 273.335938 C 852.890625 275.371094 846.601562 279.113281 840.707031 284.78125 C 836.523438 288.804688 832.621094 293.652344 828.417969 300.042969 C 821.160156 311.144531 815.132812 323.121094 808.753906 335.804688 C 803.933594 345.386719 798.949219 355.296875 793.144531 365.375 C 791.136719 368.871094 789.195312 372.117188 787.207031 375.296875 C 772.019531 399.558594 744.523438 429.957031 717.007812 435.773438 Z M 717.007812 435.773438 "/><path style=" stroke:none;fill-rule:nonzero;fill:#b3b3b3;fill-opacity:1;" d="M 714.105469 433.199219 L 713.921875 432.625 C 738.824219 424.609375 766.445312 394.453125 782.53125 371.0625 C 784.589844 368.066406 786.667969 364.957031 788.878906 361.558594 C 793.882812 353.890625 798.4375 346.425781 802.839844 339.207031 C 811.179688 325.535156 819.058594 312.621094 828.308594 301.183594 C 832.949219 295.476562 837.164062 291.179688 841.574219 287.65625 C 847.800781 282.683594 854.292969 279.472656 861.421875 277.847656 C 874.4375 274.878906 889.148438 277.691406 903.367188 280.414062 C 907.238281 281.152344 911.242188 281.921875 915.128906 282.550781 C 932.660156 285.410156 951.457031 285.867188 971 283.898438 C 992.617188 281.746094 1012.453125 276.496094 1029.96875 268.289062 C 1043.507812 261.949219 1053.121094 255.160156 1060.21875 246.929688 C 1069.042969 236.6875 1073.796875 224.023438 1073.257812 212.183594 C 1072.5625 197.433594 1064.894531 184.210938 1057.476562 171.425781 L 1057.015625 170.628906 C 1045.8125 151.304688 1033.4375 128.65625 1028.40625 104.386719 C 1026.503906 95.195312 1025.703125 85.910156 1025.996094 76.527344 C 1026.289062 67.144531 1027.671875 57.925781 1030.144531 48.871094 C 1033.296875 37.398438 1038.199219 26.726562 1044.847656 16.855469 C 1062.238281 -9.015625 1089.085938 -25.980469 1118.503906 -29.707031 L 1118.582031 -29.113281 C 1089.339844 -25.425781 1062.640625 -8.539062 1045.347656 17.191406 C 1038.734375 27.007812 1033.859375 37.617188 1030.722656 49.027344 C 1028.265625 58.039062 1026.886719 67.210938 1026.59375 76.546875 C 1026.304688 85.878906 1027.101562 95.121094 1028.996094 104.265625 C 1034.007812 128.445312 1046.355469 151.046875 1057.535156 170.328125 L 1057.996094 171.121094 C 1065.449219 183.972656 1073.15625 197.257812 1073.859375 212.15625 C 1074.402344 224.148438 1069.597656 236.964844 1060.675781 247.320312 C 1053.519531 255.617188 1043.84375 262.453125 1030.226562 268.832031 C 1012.648438 277.066406 992.742188 282.339844 971.0625 284.496094 C 951.464844 286.464844 932.613281 286.011719 915.03125 283.144531 C 911.136719 282.511719 907.128906 281.742188 903.257812 281.003906 C 889.09375 278.292969 874.445312 275.484375 861.554688 278.433594 C 854.515625 280.039062 848.101562 283.210938 841.949219 288.128906 C 837.574219 291.621094 833.386719 295.890625 828.773438 301.5625 C 819.550781 312.964844 811.683594 325.867188 803.351562 339.519531 C 798.945312 346.742188 794.390625 354.210938 789.382812 361.886719 C 787.167969 365.289062 785.089844 368.402344 783.027344 371.402344 C 766.113281 395.996094 739.125 425.140625 714.105469 433.199219 Z M 714.105469 433.199219 "/><path style=" stroke:none;fill-rule:nonzero;fill:#b3b3b3;fill-opacity:1;" d="M 711.203125 430.621094 L 710.957031 430.070312 C 739 417.425781 769.644531 378.710938 778.367188 367.148438 C 780.449219 364.382812 782.601562 361.488281 785.136719 358.039062 C 788.359375 353.667969 791.457031 349.386719 794.453125 345.246094 C 806.269531 328.90625 816.480469 314.796875 828.703125 302.652344 C 833.746094 297.675781 838.246094 293.964844 842.863281 290.964844 C 849.335938 286.757812 855.949219 284.132812 863.078125 282.933594 C 875.355469 280.875 889.121094 283.480469 902.414062 286 C 907.105469 286.890625 911.957031 287.8125 916.675781 288.511719 C 933.835938 291.074219 952.570312 291.03125 972.363281 288.378906 C 993.792969 285.523438 1013.367188 279.632812 1030.511719 270.84375 C 1043.53125 264.171875 1052.730469 257.234375 1059.464844 249.007812 C 1067.949219 238.625 1072.320312 226.421875 1071.773438 214.652344 C 1071.042969 199.476562 1063.175781 185.914062 1055.570312 172.800781 C 1042.929688 151.007812 1031.1875 129.53125 1026.40625 106.363281 C 1024.515625 97.113281 1023.78125 87.769531 1024.210938 78.339844 C 1024.636719 68.90625 1026.214844 59.667969 1028.9375 50.628906 C 1032.382812 39.183594 1037.601562 28.613281 1044.597656 18.917969 C 1062.71875 -6.246094 1090.222656 -22.324219 1120.09375 -25.175781 L 1120.148438 -24.578125 C 1090.46875 -21.730469 1063.105469 -5.753906 1045.082031 19.269531 C 1038.125 28.910156 1032.9375 39.417969 1029.515625 50.800781 C 1026.804688 59.796875 1025.238281 68.984375 1024.8125 78.367188 C 1024.386719 87.746094 1025.113281 97.039062 1026.996094 106.242188 C 1031.761719 129.320312 1043.476562 150.753906 1056.089844 172.5 C 1063.734375 185.675781 1071.636719 199.300781 1072.375 214.625 C 1072.929688 226.542969 1068.511719 238.890625 1059.929688 249.386719 C 1053.140625 257.679688 1043.882812 264.667969 1030.789062 271.378906 C 1013.582031 280.195312 993.953125 286.113281 972.445312 288.976562 C 952.59375 291.636719 933.804688 291.679688 916.589844 289.109375 C 911.855469 288.402344 907 287.484375 902.304688 286.589844 C 889.0625 284.082031 875.378906 281.480469 863.175781 283.527344 C 856.132812 284.710938 849.59375 287.304688 843.191406 291.46875 C 838.609375 294.445312 834.140625 298.132812 829.125 303.082031 C 816.9375 315.1875 806.742188 329.28125 794.941406 345.597656 C 791.941406 349.738281 788.84375 354.023438 785.625 358.394531 C 783.085938 361.847656 780.933594 364.742188 778.851562 367.507812 C 770.101562 379.101562 739.378906 417.914062 711.203125 430.621094 Z M 711.203125 430.621094 "/><path style=" stroke:none;fill-rule:nonzero;fill:#b3b3b3;fill-opacity:1;" d="M 708.300781 428.035156 L 707.988281 427.523438 C 730.707031 413.8125 759.226562 381.359375 774.207031 363.230469 L 776.703125 360.199219 C 778.289062 358.277344 779.851562 356.386719 781.394531 354.519531 C 797.210938 335.472656 812.148438 317.484375 829.101562 304.125 C 834.523438 299.886719 839.304688 296.757812 844.152344 294.273438 C 850.859375 290.835938 857.59375 288.792969 864.734375 288.023438 C 876.238281 286.785156 888.964844 289.210938 901.273438 291.554688 C 906.84375 292.617188 912.601562 293.714844 918.222656 294.476562 C 935.300781 296.796875 953.453125 296.265625 973.726562 292.863281 C 995.03125 289.308594 1014.320312 282.761719 1031.054688 273.398438 C 1043.535156 266.417969 1052.324219 259.328125 1058.707031 251.085938 C 1066.726562 240.714844 1070.839844 228.652344 1070.292969 217.117188 C 1069.519531 201.5 1061.339844 187.40625 1054.125 174.972656 C 1041.929688 153.953125 1029.320312 132.21875 1024.410156 108.335938 C 1020.625 89.921875 1021.777344 70.574219 1027.734375 52.386719 C 1031.492188 40.976562 1037.027344 30.507812 1044.34375 20.976562 C 1063.1875 -3.488281 1091.371094 -18.664062 1121.679688 -20.648438 L 1121.71875 -20.046875 C 1091.585938 -18.070312 1063.558594 -2.984375 1044.820312 21.34375 C 1037.546875 30.820312 1032.042969 41.230469 1028.304688 52.574219 C 1022.378906 70.664062 1021.234375 89.902344 1025 108.214844 C 1029.886719 132 1042.472656 153.691406 1054.648438 174.671875 C 1061.894531 187.164062 1070.113281 201.324219 1070.890625 217.089844 C 1071.449219 228.765625 1067.292969 240.96875 1059.183594 251.453125 C 1052.746094 259.761719 1043.902344 266.902344 1031.347656 273.921875 C 1014.550781 283.316406 995.199219 289.886719 973.824219 293.453125 C 953.507812 296.871094 935.28125 297.398438 918.144531 295.070312 C 912.503906 294.308594 906.738281 293.207031 901.160156 292.144531 C 888.898438 289.808594 876.214844 287.390625 864.796875 288.621094 C 857.730469 289.375 851.066406 291.402344 844.425781 294.808594 C 839.613281 297.273438 834.863281 300.382812 829.472656 304.597656 C 812.570312 317.914062 797.652344 335.878906 781.859375 354.898438 C 780.316406 356.765625 778.753906 358.660156 777.167969 360.582031 L 774.667969 363.613281 C 759.667969 381.769531 731.09375 414.28125 708.300781 428.035156 Z M 708.300781 428.035156 "/><path style=" stroke:none;fill-rule:nonzero;fill:#b3b3b3;fill-opacity:1;" d="M 705.398438 425.449219 L 705.027344 424.976562 C 723.0625 410.796875 748.042969 383.648438 770.042969 359.316406 C 772.835938 356.222656 775.324219 353.5 777.65625 351 C 793.199219 334.355469 810.238281 317.332031 829.503906 305.601562 C 835.125 302.175781 840.339844 299.554688 845.445312 297.585938 C 852.179688 294.953125 859.164062 293.460938 866.390625 293.113281 C 877.03125 292.605469 888.152344 294.769531 899.929688 297.0625 C 906.4375 298.328125 913.171875 299.636719 919.773438 300.441406 C 936.578125 302.492188 954.671875 301.480469 975.089844 297.347656 C 996.296875 293.078125 1015.308594 285.882812 1031.597656 275.957031 C 1043.523438 268.691406 1051.898438 261.449219 1057.953125 253.167969 C 1065.503906 242.816406 1069.359375 230.890625 1068.808594 219.589844 C 1068.054688 204.734375 1061.058594 191.582031 1052.683594 177.148438 L 1050.921875 174.121094 C 1039.199219 153.964844 1027.078125 133.121094 1022.410156 110.3125 C 1018.632812 91.847656 1020.054688 72.425781 1026.527344 54.152344 C 1030.578125 42.761719 1036.433594 32.394531 1044.09375 23.042969 C 1046.503906 20.113281 1049.0625 17.316406 1051.769531 14.65625 C 1054.476562 11.996094 1057.316406 9.484375 1060.289062 7.125 C 1063.261719 4.765625 1066.351562 2.566406 1069.558594 0.535156 C 1072.761719 -1.496094 1076.066406 -3.355469 1079.46875 -5.039062 C 1082.871094 -6.722656 1086.355469 -8.21875 1089.917969 -9.535156 C 1093.476562 -10.847656 1097.097656 -11.96875 1100.78125 -12.902344 C 1104.460938 -13.832031 1108.179688 -14.566406 1111.9375 -15.101562 C 1115.695312 -15.636719 1119.472656 -15.976562 1123.265625 -16.113281 L 1123.289062 -15.511719 C 1119.515625 -15.375 1115.761719 -15.042969 1112.023438 -14.507812 C 1108.285156 -13.972656 1104.585938 -13.246094 1100.925781 -12.320312 C 1097.265625 -11.394531 1093.664062 -10.277344 1090.125 -8.972656 C 1086.582031 -7.664062 1083.121094 -6.175781 1079.734375 -4.5 C 1076.351562 -2.828125 1073.066406 -0.980469 1069.878906 1.042969 C 1066.691406 3.0625 1063.617188 5.246094 1060.660156 7.59375 C 1057.707031 9.941406 1054.882812 12.4375 1052.1875 15.082031 C 1049.496094 17.726562 1046.953125 20.507812 1044.554688 23.421875 C 1036.941406 32.71875 1031.121094 43.027344 1027.09375 54.351562 C 1020.660156 72.523438 1019.242188 91.835938 1023 110.191406 C 1027.648438 132.902344 1039.742188 153.703125 1051.441406 173.816406 L 1053.199219 176.847656 C 1061.617188 191.347656 1068.648438 204.570312 1069.40625 219.558594 C 1069.964844 230.996094 1066.070312 243.058594 1058.4375 253.519531 C 1052.335938 261.871094 1043.90625 269.164062 1031.90625 276.46875 C 1015.558594 286.429688 996.484375 293.652344 975.207031 297.933594 C 954.722656 302.085938 936.566406 303.097656 919.699219 301.035156 C 913.074219 300.230469 906.332031 298.917969 899.8125 297.648438 C 888.074219 295.367188 876.988281 293.207031 866.417969 293.714844 C 859.253906 294.054688 852.335938 295.535156 845.660156 298.148438 C 840.589844 300.101562 835.40625 302.707031 829.8125 306.113281 C 810.613281 317.808594 793.609375 334.796875 778.09375 351.410156 C 775.765625 353.910156 773.28125 356.625 770.488281 359.714844 C 748.472656 384.070312 723.472656 411.238281 705.398438 425.449219 Z M 705.398438 425.449219 "/><path style=" stroke:none;fill-rule:nonzero;fill:#b3b3b3;fill-opacity:1;" d="M 702.492188 422.855469 L 702.0625 422.433594 C 709.839844 414.585938 719.609375 404.152344 729.957031 393.105469 C 741.910156 380.339844 754.273438 367.140625 765.878906 355.398438 C 768.652344 352.59375 771.355469 349.929688 773.914062 347.480469 C 794.488281 327.878906 811.753906 315.417969 829.90625 307.078125 C 835.90625 304.347656 841.414062 302.328125 846.738281 300.902344 C 853.714844 299.011719 860.816406 298.109375 868.046875 298.203125 C 877.730469 298.320312 887.734375 300.339844 898.328125 302.480469 C 905.855469 304 913.640625 305.574219 921.320312 306.402344 C 937.886719 308.203125 955.917969 306.707031 976.449219 301.832031 C 997.59375 296.832031 1016.332031 288.988281 1032.136719 278.515625 C 1043.496094 270.988281 1051.457031 263.59375 1057.195312 255.246094 C 1064.28125 244.917969 1067.875 233.128906 1067.324219 222.054688 C 1066.53125 206.8125 1059.261719 193.144531 1051.234375 179.320312 C 1050.140625 177.4375 1049.039062 175.550781 1047.933594 173.660156 C 1036.601562 154.28125 1024.886719 134.242188 1020.414062 112.285156 C 1016.636719 93.753906 1018.335938 74.261719 1025.320312 55.910156 C 1029.664062 44.542969 1035.835938 34.273438 1043.839844 25.101562 C 1064.101562 1.988281 1093.632812 -11.386719 1124.851562 -11.582031 L 1124.855469 -10.980469 C 1093.808594 -10.78125 1064.441406 2.511719 1044.292969 25.5 C 1036.335938 34.613281 1030.199219 44.820312 1025.882812 56.121094 C 1018.9375 74.367188 1017.246094 93.746094 1021 112.167969 C 1025.453125 134.027344 1037.144531 154.019531 1048.453125 173.355469 C 1049.558594 175.246094 1050.65625 177.132812 1051.753906 179.019531 C 1059.820312 192.90625 1067.125 206.648438 1067.921875 222.023438 C 1068.484375 233.230469 1064.847656 245.148438 1057.691406 255.585938 C 1051.90625 264 1043.894531 271.445312 1032.46875 279.015625 C 1016.605469 289.527344 997.804688 297.402344 976.585938 302.414062 C 955.992188 307.304688 937.890625 308.804688 921.253906 307 C 913.550781 306.167969 905.75 304.59375 898.210938 303.066406 C 887.644531 300.933594 877.667969 298.917969 868.039062 298.804688 C 860.867188 298.710938 853.816406 299.605469 846.894531 301.480469 C 841.601562 302.898438 836.128906 304.910156 830.15625 307.625 C 812.070312 315.933594 794.851562 328.359375 774.332031 347.914062 C 771.773438 350.359375 769.074219 353.019531 766.308594 355.820312 C 754.707031 367.554688 742.347656 380.753906 730.394531 393.515625 C 720.046875 404.566406 710.273438 415.003906 702.492188 422.855469 Z M 702.492188 422.855469 "/><path style=" stroke:none;fill-rule:nonzero;fill:#b3b3b3;fill-opacity:1;" d="M 699.582031 420.261719 L 699.105469 419.894531 C 713.460938 401.398438 738.386719 373.074219 761.71875 351.484375 C 764.585938 348.832031 767.429688 346.300781 770.175781 343.964844 C 790.535156 326.699219 810.207031 315.121094 830.308594 308.5625 C 836.105469 306.65625 842.011719 305.207031 848.03125 304.222656 C 855.21875 303.066406 862.441406 302.757812 869.703125 303.296875 C 878.324219 303.910156 887.125 305.789062 896.445312 307.78125 C 905.074219 309.625 914 311.53125 922.867188 312.367188 C 939.234375 313.921875 957.207031 311.941406 977.8125 306.3125 C 998.933594 300.566406 1017.394531 292.078125 1032.679688 281.074219 C 1043.453125 273.316406 1051.003906 265.769531 1056.441406 257.324219 C 1063.058594 247.027344 1066.394531 235.375 1065.839844 224.523438 C 1065.011719 208.878906 1057.457031 194.6875 1049.792969 181.492188 C 1048.273438 178.878906 1046.734375 176.265625 1045.191406 173.648438 C 1034.148438 154.910156 1022.730469 135.535156 1018.414062 114.261719 C 1014.640625 95.65625 1016.609375 76.085938 1024.117188 57.671875 C 1028.753906 46.320312 1035.242188 36.152344 1043.589844 27.167969 C 1064.554688 4.703125 1094.75 -7.765625 1126.441406 -7.046875 L 1126.425781 -6.445312 C 1094.90625 -7.164062 1064.875 5.238281 1044.027344 27.578125 C 1035.734375 36.507812 1029.28125 46.613281 1024.671875 57.898438 C 1017.210938 76.203125 1015.25 95.652344 1019 114.140625 C 1023.300781 135.316406 1034.691406 154.648438 1045.707031 173.339844 C 1047.25 175.960938 1048.785156 178.578125 1050.308594 181.191406 C 1058.011719 194.449219 1065.601562 208.714844 1066.4375 224.492188 C 1067 235.46875 1063.628906 247.246094 1056.941406 257.648438 C 1051.464844 266.160156 1043.867188 273.757812 1033.027344 281.558594 C 1017.683594 292.605469 999.160156 301.128906 977.96875 306.894531 C 957.292969 312.539062 939.25 314.527344 922.808594 312.964844 C 913.90625 312.125 904.964844 310.214844 896.316406 308.367188 C 887.019531 306.382812 878.238281 304.503906 869.660156 303.894531 C 862.445312 303.367188 855.265625 303.675781 848.125 304.8125 C 842.136719 305.796875 836.257812 307.238281 830.492188 309.132812 C 810.464844 315.667969 790.863281 327.210938 770.5625 344.421875 C 767.824219 346.75 764.984375 349.277344 762.125 351.925781 C 738.820312 373.492188 713.921875 401.789062 699.582031 420.261719 Z M 699.582031 420.261719 "/><path style=" stroke:none;fill-rule:nonzero;fill:#b3b3b3;fill-opacity:1;" d="M 696.667969 417.667969 L 696.152344 417.359375 C 709.460938 395.441406 734.136719 367.394531 757.558594 347.570312 C 760.53125 345.050781 763.519531 342.65625 766.4375 340.449219 C 787.398438 324.644531 808.421875 314.703125 830.714844 310.050781 C 836.855469 308.757812 843.058594 307.925781 849.324219 307.542969 C 856.695312 307.132812 864.039062 307.414062 871.359375 308.390625 C 878.789062 309.359375 886.285156 311.082031 894.21875 312.90625 C 904.054688 315.167969 914.226562 317.507812 924.414062 318.332031 C 940.832031 319.667969 958.230469 317.277344 979.171875 310.800781 C 1000.304688 304.285156 1018.488281 295.144531 1033.21875 283.632812 C 1043.257812 275.785156 1050.605469 267.863281 1055.683594 259.40625 C 1061.921875 248.992188 1064.921875 237.785156 1064.355469 226.992188 C 1063.488281 210.9375 1055.96875 196.789062 1048.347656 183.667969 C 1046.46875 180.4375 1044.515625 177.148438 1042.625 173.972656 C 1031.796875 155.769531 1020.601562 136.949219 1016.414062 116.238281 C 1012.636719 97.550781 1014.882812 77.90625 1022.910156 59.429688 C 1027.84375 48.097656 1034.652344 38.027344 1043.335938 29.230469 C 1065 7.40625 1095.863281 -4.164062 1128.027344 -2.511719 L 1127.996094 -1.914062 C 1096.003906 -3.554688 1065.304688 7.949219 1043.765625 29.652344 C 1035.132812 38.398438 1028.363281 48.40625 1023.460938 59.671875 C 1015.488281 78.03125 1013.253906 97.550781 1017.003906 116.117188 C 1021.171875 136.730469 1032.339844 155.507812 1043.140625 173.664062 C 1045.03125 176.84375 1046.988281 180.132812 1048.867188 183.363281 C 1056.527344 196.546875 1064.082031 210.773438 1064.957031 226.960938 C 1065.527344 237.871094 1062.5 249.199219 1056.199219 259.714844 C 1051.085938 268.234375 1043.691406 276.210938 1033.589844 284.105469 C 1018.800781 295.664062 1000.550781 304.839844 979.351562 311.371094 C 958.335938 317.871094 940.863281 320.273438 924.367188 318.929688 C 914.136719 318.101562 903.941406 315.757812 894.085938 313.492188 C 886.164062 311.671875 878.683594 309.949219 871.28125 308.988281 C 864 308.015625 856.695312 307.734375 849.359375 308.144531 C 843.125 308.523438 836.949219 309.351562 830.835938 310.636719 C 808.636719 315.269531 787.6875 325.179688 766.800781 340.929688 C 763.890625 343.128906 760.910156 345.519531 757.945312 348.03125 C 734.570312 367.816406 709.945312 395.800781 696.667969 417.667969 Z M 696.667969 417.667969 "/><path style=" stroke:none;fill-rule:nonzero;fill:#b3b3b3;fill-opacity:1;" d="M 693.746094 415.074219 L 693.203125 414.816406 C 704.089844 391.695312 728.277344 363.097656 753.394531 343.65625 C 756.480469 341.265625 759.609375 339.003906 762.699219 336.933594 C 784.140625 322.582031 807.15625 314.035156 831.117188 311.539062 C 837.597656 310.859375 844.097656 310.632812 850.613281 310.867188 C 858.144531 311.175781 865.613281 312.050781 873.011719 313.484375 C 879.101562 314.636719 885.175781 316.167969 891.605469 317.789062 C 902.757812 320.597656 914.292969 323.507812 925.960938 324.292969 C 942.230469 325.398438 959.570312 322.535156 980.53125 315.28125 C 1001.703125 307.976562 1019.613281 298.1875 1033.761719 286.191406 C 1043.203125 278.179688 1050.125 270.101562 1054.925781 261.488281 C 1060.691406 251.117188 1063.4375 240.042969 1062.867188 229.460938 C 1061.960938 212.992188 1054.148438 198.308594 1046.898438 185.839844 C 1044.710938 182.078125 1042.414062 178.257812 1040.191406 174.5625 C 1029.523438 156.8125 1018.488281 138.460938 1014.414062 118.214844 C 1010.6875 99.703125 1013.277344 79.453125 1021.703125 61.195312 C 1024.292969 55.582031 1027.386719 50.265625 1030.980469 45.234375 C 1034.578125 40.207031 1038.613281 35.558594 1043.085938 31.292969 C 1065.441406 10.089844 1096.980469 -0.578125 1129.609375 2.019531 L 1129.5625 2.617188 C 1097.101562 0.0351562 1065.734375 10.644531 1043.5 31.730469 C 1039.054688 35.96875 1035.046875 40.585938 1031.472656 45.585938 C 1027.898438 50.582031 1024.824219 55.867188 1022.25 61.441406 C 1013.878906 79.585938 1011.304688 99.707031 1015.003906 118.09375 C 1019.0625 138.242188 1030.066406 156.546875 1040.710938 174.25 C 1042.933594 177.949219 1045.230469 181.769531 1047.421875 185.535156 C 1054.707031 198.066406 1062.554688 212.828125 1063.472656 229.425781 C 1064.046875 240.121094 1061.273438 251.308594 1055.453125 261.777344 C 1050.617188 270.453125 1043.652344 278.589844 1034.152344 286.648438 C 1019.945312 298.695312 1001.972656 308.519531 980.730469 315.851562 C 959.691406 323.132812 942.277344 326.003906 925.921875 324.894531 C 914.203125 324.101562 902.640625 321.1875 891.460938 318.371094 C 885.039062 316.75 878.972656 315.222656 872.902344 314.074219 C 865.53125 312.644531 858.09375 311.773438 850.59375 311.46875 C 844.105469 311.234375 837.632812 311.457031 831.179688 312.136719 C 807.320312 314.628906 784.394531 323.136719 763.03125 337.429688 C 759.957031 339.492188 756.839844 341.75 753.765625 344.128906 C 728.714844 363.519531 704.597656 392.03125 693.746094 415.074219 Z M 693.746094 415.074219 "/><path style=" stroke:none;fill-rule:nonzero;fill:#b3b3b3;fill-opacity:1;" d="M 690.824219 412.480469 L 690.257812 412.277344 C 699.246094 387.199219 722.394531 358.726562 749.234375 339.742188 C 752.441406 337.472656 755.714844 335.34375 758.960938 333.417969 C 781.308594 320.175781 805.71875 313.316406 831.515625 313.03125 C 838.339844 312.964844 845.132812 313.351562 851.90625 314.195312 C 858.867188 315.074219 866.316406 316.507812 874.667969 318.578125 C 879.25 319.714844 883.980469 321.042969 888.554688 322.328125 C 901.15625 325.875 914.1875 329.539062 927.507812 330.257812 C 943.65625 331.136719 960.9375 327.804688 981.894531 319.765625 C 1003.132812 311.640625 1020.765625 301.207031 1034.304688 288.75 C 1043.019531 280.726562 1049.707031 272.253906 1054.167969 263.566406 C 1059.464844 253.25 1061.960938 242.308594 1061.386719 231.925781 C 1060.480469 215.847656 1053.195312 201.320312 1045.457031 188.011719 C 1042.996094 183.785156 1040.390625 179.496094 1037.867188 175.347656 C 1027.3125 157.992188 1016.398438 140.046875 1012.417969 120.1875 C 1008.691406 101.578125 1011.558594 81.25 1020.5 62.953125 C 1023.238281 57.347656 1026.484375 52.058594 1030.242188 47.082031 C 1034 42.101562 1038.195312 37.527344 1042.835938 33.355469 C 1065.886719 12.761719 1098.09375 2.992188 1131.199219 6.554688 L 1131.132812 7.152344 C 1098.195312 3.609375 1066.160156 13.324219 1043.234375 33.804688 C 1038.625 37.949219 1034.453125 42.496094 1030.722656 47.441406 C 1026.988281 52.390625 1023.761719 57.648438 1021.039062 63.214844 C 1012.15625 81.398438 1009.304688 101.585938 1013.007812 120.070312 C 1016.96875 139.824219 1027.855469 157.726562 1038.382812 175.039062 C 1040.90625 179.1875 1043.515625 183.476562 1045.976562 187.710938 C 1053.753906 201.082031 1061.074219 215.6875 1061.988281 231.894531 C 1062.566406 242.382812 1060.046875 253.429688 1054.707031 263.839844 C 1050.207031 272.59375 1043.480469 281.121094 1034.710938 289.191406 C 1021.117188 301.699219 1003.417969 312.175781 982.113281 320.328125 C 961.074219 328.394531 943.710938 331.742188 927.476562 330.855469 C 914.089844 330.132812 901.027344 326.460938 888.390625 322.90625 C 883.820312 321.621094 879.097656 320.292969 874.527344 319.160156 C 866.195312 317.097656 858.769531 315.667969 851.828125 314.789062 C 845.085938 313.949219 838.316406 313.5625 831.523438 313.632812 C 805.832031 313.914062 781.523438 320.746094 759.265625 333.933594 C 756.035156 335.851562 752.777344 337.96875 749.582031 340.230469 C 722.832031 359.148438 699.769531 387.507812 690.824219 412.480469 Z M 690.824219 412.480469 "/><path style=" stroke:none;fill-rule:nonzero;fill:#b3b3b3;fill-opacity:1;" d="M 687.898438 409.890625 L 687.316406 409.734375 C 694.394531 382.917969 717.0625 353.910156 745.074219 335.832031 C 748.402344 333.683594 751.816406 331.6875 755.222656 329.902344 C 778.578125 317.691406 804.382812 312.519531 831.914062 314.527344 C 839.074219 315.058594 846.164062 316.058594 853.191406 317.523438 C 861.535156 319.273438 869.9375 321.730469 876.324219 323.675781 C 879.109375 324.53125 881.960938 325.441406 884.714844 326.320312 C 899.003906 330.882812 913.78125 335.601562 929.058594 336.222656 C 945.097656 336.878906 962.320312 333.074219 983.257812 324.253906 C 1004.886719 315.152344 1021.761719 304.375 1034.847656 291.308594 C 1042.96875 283.199219 1049.21875 274.566406 1053.414062 265.648438 C 1058.234375 255.398438 1060.480469 244.589844 1059.902344 234.394531 C 1058.957031 217.921875 1051.707031 203.414062 1044.011719 190.183594 C 1041.3125 185.542969 1038.421875 180.847656 1035.625 176.308594 C 1025.152344 159.289062 1014.320312 141.695312 1010.421875 122.160156 C 1006.683594 103.449219 1009.835938 83.046875 1019.292969 64.714844 C 1022.179688 59.117188 1025.582031 53.855469 1029.5 48.925781 C 1033.421875 43.996094 1037.78125 39.496094 1042.582031 35.421875 C 1054.589844 25.308594 1068.84375 18.054688 1084.953125 13.863281 C 1100.238281 9.886719 1116.777344 8.925781 1132.785156 11.085938 L 1132.703125 11.683594 C 1099.292969 7.167969 1066.585938 15.988281 1042.96875 35.878906 C 1038.199219 39.929688 1033.863281 44.402344 1029.96875 49.300781 C 1026.078125 54.199219 1022.695312 59.425781 1019.828125 64.988281 C 1010.433594 83.203125 1007.300781 103.464844 1011.007812 122.042969 C 1014.886719 141.46875 1025.691406 159.019531 1036.136719 175.992188 C 1038.933594 180.535156 1041.828125 185.234375 1044.53125 189.882812 C 1052.261719 203.175781 1059.550781 217.761719 1060.503906 234.359375 C 1061.085938 244.65625 1058.824219 255.5625 1053.957031 265.902344 C 1049.730469 274.882812 1043.441406 283.574219 1035.269531 291.730469 C 1022.128906 304.855469 1005.191406 315.675781 983.492188 324.804688 C 962.46875 333.664062 945.164062 337.480469 929.03125 336.820312 C 913.675781 336.195312 898.859375 331.464844 884.535156 326.894531 C 881.777344 326.011719 878.929688 325.105469 876.148438 324.246094 C 869.773438 322.308594 861.390625 319.855469 853.070312 318.113281 C 846.070312 316.648438 839.003906 315.652344 831.871094 315.125 C 804.449219 313.125 778.757812 318.277344 755.5 330.4375 C 752.113281 332.210938 748.714844 334.195312 745.398438 336.335938 C 717.507812 354.335938 694.9375 383.207031 687.898438 409.890625 Z M 687.898438 409.890625 "/><path style=" stroke:none;fill-rule:nonzero;fill:#b3b3b3;fill-opacity:1;" d="M 684.96875 407.300781 L 684.378906 407.191406 C 689.710938 378.132812 711.375 349.289062 740.914062 331.917969 C 744.34375 329.898438 747.867188 328.054688 751.484375 326.390625 C 775.585938 315.324219 803.535156 311.742188 832.308594 316.027344 C 839.804688 317.144531 847.195312 318.753906 854.476562 320.855469 C 862.011719 323.015625 869.269531 325.609375 877.976562 328.769531 L 880.761719 329.789062 C 896.765625 335.652344 913.3125 341.714844 930.605469 342.1875 C 946.558594 342.625 963.722656 338.351562 984.621094 328.738281 C 1006.351562 318.75 1022.960938 307.34375 1035.386719 293.867188 C 1042.917969 285.707031 1048.726562 276.910156 1052.660156 267.730469 C 1057.070312 257.417969 1059.007812 247.03125 1058.417969 236.863281 C 1057.429688 219.949219 1049.851562 204.875 1042.566406 192.359375 C 1039.652344 187.347656 1036.496094 182.289062 1033.449219 177.398438 C 1023.027344 160.679688 1012.25 143.386719 1008.421875 124.136719 C 1004.679688 105.316406 1008.113281 84.839844 1018.089844 66.476562 C 1021.125 60.886719 1024.679688 55.648438 1028.761719 50.769531 C 1032.84375 45.890625 1037.367188 41.464844 1042.332031 37.488281 C 1054.71875 27.644531 1069.367188 20.753906 1085.863281 17.011719 C 1101.433594 13.480469 1118.207031 13 1134.371094 15.625 L 1134.273438 16.214844 C 1100.386719 10.71875 1067.015625 18.640625 1042.707031 37.957031 C 1037.773438 41.910156 1033.277344 46.308594 1029.222656 51.15625 C 1025.167969 56.007812 1021.632812 61.207031 1018.617188 66.761719 C 1008.707031 85.003906 1005.296875 105.335938 1009.011719 124.019531 C 1012.816406 143.164062 1023.566406 160.40625 1033.957031 177.082031 C 1037.011719 181.976562 1040.164062 187.039062 1043.085938 192.054688 C 1050.40625 204.636719 1058.023438 219.789062 1059.019531 236.832031 C 1059.613281 247.089844 1057.660156 257.566406 1053.210938 267.96875 C 1049.253906 277.210938 1043.40625 286.0625 1035.832031 294.277344 C 1023.347656 307.808594 1006.679688 319.261719 984.871094 329.285156 C 963.886719 338.9375 946.636719 343.226562 930.589844 342.789062 C 913.195312 342.3125 896.601562 336.234375 880.554688 330.355469 L 877.773438 329.335938 C 869.078125 326.179688 861.828125 323.589844 854.3125 321.433594 C 847.054688 319.339844 839.691406 317.734375 832.21875 316.621094 C 803.5625 312.351562 775.730469 315.921875 751.734375 326.9375 C 748.136719 328.59375 744.632812 330.425781 741.21875 332.4375 C 711.824219 349.71875 690.273438 378.40625 684.96875 407.300781 Z M 684.96875 407.300781 "/><g clip-rule="nonzero" clip-path="url(#db38bd4777)"><path style=" stroke:none;fill-rule:nonzero;fill:#b3b3b3;fill-opacity:1;" d="M 682.039062 404.710938 L 681.441406 404.644531 C 683.449219 387.078125 691.023438 369.96875 703.339844 355.167969 C 709.289062 348.03125 716.023438 341.734375 723.539062 336.269531 C 731.050781 330.804688 739.121094 326.339844 747.742188 322.878906 C 779.679688 310.085938 818.042969 310.550781 855.757812 324.1875 C 862.695312 326.695312 869.671875 329.652344 876.417969 332.507812 C 894.253906 340.0625 912.695312 347.875 932.152344 348.148438 C 953.015625 348.441406 972.867188 339.769531 985.984375 333.222656 C 1007.835938 322.316406 1024.175781 310.28125 1035.929688 296.429688 C 1050.425781 279.351562 1058.082031 258.542969 1056.933594 239.332031 C 1055.609375 217.054688 1043.265625 197.507812 1031.328125 178.605469 C 1020.933594 162.144531 1010.1875 145.125 1006.421875 126.109375 C 1000.253906 94.957031 1014.582031 60.171875 1042.082031 39.550781 C 1054.851562 29.972656 1069.886719 23.449219 1086.773438 20.15625 C 1102.628906 17.070312 1119.632812 17.066406 1135.953125 20.15625 L 1135.84375 20.746094 C 1101.992188 14.34375 1067.074219 21.554688 1042.441406 40.03125 C 1015.125 60.515625 1000.886719 95.0625 1007.011719 125.992188 C 1010.753906 144.898438 1021.472656 161.871094 1031.835938 178.285156 C 1043.8125 197.25 1056.199219 216.863281 1057.535156 239.296875 C 1058.691406 258.660156 1050.980469 279.625 1036.390625 296.816406 C 1024.578125 310.730469 1008.179688 322.816406 986.25 333.761719 C 973.078125 340.335938 953.140625 349.046875 932.144531 348.75 C 912.570312 348.476562 894.074219 340.640625 876.183594 333.0625 C 869.445312 330.207031 862.476562 327.253906 855.554688 324.75 C 817.976562 311.164062 779.765625 310.695312 747.96875 323.4375 C 711.910156 337.882812 686.03125 369.785156 682.039062 404.710938 Z M 682.039062 404.710938 "/></g></g></svg>