<?xml version="1.0" encoding="UTF-8"?><svg xmlns="http://www.w3.org/2000/svg" id="uuid-308dfea6-bff4-409a-9210-6c8ca1136d4d" data-name="Team Collaboration" viewBox="0 0 1080 1080"><metadata><?xpacket begin="﻿" id="W5M0MpCehiHzreSzNTczkc9d"?><x:xmpmeta xmlns:x="adobe:ns:meta/" x:xmptk="Adobe XMP Core 8.0-c001 1.000000, 0000/00/00-00:00:00"><rdf:RDF xmlns:rdf="http://www.w3.org/1999/02/22-rdf-syntax-ns#"><rdf:Description xmlns:dc="http://purl.org/dc/elements/1.1/" xmlns:tiff="http://ns.adobe.com/tiff/1.0/" xmlns:xmp="http://ns.adobe.com/xap/1.0/"><xmp:rhcc-effective-on>2024-06-28T18:22:51.992Z</xmp:rhcc-effective-on><xmp:rhcc-rights-restricted>no</xmp:rhcc-rights-restricted><xmp:brand-content-subtype>Illustration</xmp:brand-content-subtype><xmp:rhcc-metadata-complete-moderator>pending</xmp:rhcc-metadata-complete-moderator><xmp:rhcc-translation-id>TRAe79d8e85-5927-46e6-b1f2-ea7b99753f30</xmp:rhcc-translation-id><xmp:brand-content-type>Illustration</xmp:brand-content-type><xmp:CreateDate>2024-06-28T18:22:51.992Z</xmp:CreateDate><xmp:rhcc-aspect-ratio>square</xmp:rhcc-aspect-ratio><xmp:rhcc-derivative-id>DERe79d8e85-5927-46e6-b1f2-ea7b99753f30</xmp:rhcc-derivative-id><xmp:rhcc-effective-on-set-on-upload>true</xmp:rhcc-effective-on-set-on-upload><xmp:rhcc-uploaded-by>alwilker@redhat.com</xmp:rhcc-uploaded-by><xmp:rhcc-metadata-complete-uploader>pending</xmp:rhcc-metadata-complete-uploader><xmp:rhcc-file-last-modified>2024-07-13T00:26:51.055Z</xmp:rhcc-file-last-modified><xmp:rhcc-audience>rhcc-audience:internal</xmp:rhcc-audience><xmp:rhcc-notify-portal-subscribers-on-change>yes</xmp:rhcc-notify-portal-subscribers-on-change><xmp:brand-colorway><rdf:Bag><rdf:li>colorway:black</rdf:li><rdf:li>colorway:red</rdf:li></rdf:Bag></xmp:brand-colorway><tiff:ImageLength>1080</tiff:ImageLength><tiff:ImageWidth>1080</tiff:ImageWidth><dc:format>image/svg+xml</dc:format><dc:modified>2024-06-28T18:25:51.107Z</dc:modified><dc:description><rdf:Alt><rdf:li xml:lang="x-default">open hybrid cloud, team, collaboration, clouds, servers, notes, app</rdf:li></rdf:Alt></dc:description><dc:title><rdf:Alt><rdf:li xml:lang="x-default">Collaboration (open hybrid cloud team) illustration</rdf:li></rdf:Alt></dc:title></rdf:Description></rdf:RDF></x:xmpmeta><?xpacket end="w"?></metadata><defs><clipPath id="uuid-ebfc3341-a93b-43c4-9c0d-c3c38bfdeb7c"><circle cx="338.41" cy="649.07" r="161.16" fill="none" stroke-width="0"/></clipPath><style>.uuid-160294f7-f953-4aca-9de2-f47bf02f7f1b,.uuid-55fbbeec-b5ef-4bd7-9d36-625570f69628,.uuid-60fe4700-80ae-4b15-b7af-87e4af7f0fc0,.uuid-793f102e-9e0d-4bb9-8681-8b93e86e5a4f,.uuid-8c944106-2bfe-4ada-96d1-52456b8fd0ff,.uuid-a7700132-7bc8-4fa4-b217-90122727ee54,.uuid-b5ae9b65-613c-427c-8645-790fac6ae5c5,.uuid-c1ba5ad2-70d8-4a4e-929b-df557eb50bd7,.uuid-e355542c-14e6-4210-a4fd-67672cd11897{fill:none}.uuid-0ee93840-0a69-4bf1-b5f5-4b340618efe8,.uuid-124abf01-9bab-4411-98d9-e0052cb6d57c,.uuid-1bf5ccc5-6fb3-4ee7-9173-67d0001bce6a,.uuid-281393f0-15f7-45a4-97b7-7f4154fc9791,.uuid-2ada49a1-36d3-4b72-9006-7aa42f010d6c,.uuid-3f3f5695-6b3c-4896-b89e-72a1b8faa2b8,.uuid-6b95bf6d-8563-41f8-9f13-bbfa285f850e,.uuid-6d87fa4a-911d-402c-9294-5fd221aa16e6,.uuid-97faee26-0a00-48aa-a7fb-77ab1ba5c888,.uuid-a32ae936-e098-4ea7-a7f7-0af6c1e3578d,.uuid-ba92305a-3e75-4634-b506-503727e71e5c,.uuid-c1fa2055-3b36-4334-8868-6c3a5f6dc377,.uuid-ed757845-6fef-422a-a354-22406b3d5b7f{stroke-width:0}.uuid-d03f09f8-7f7c-4a93-8e5d-cbb0c02458cf{fill:#ff0;stroke-width:2px}.uuid-160294f7-f953-4aca-9de2-f47bf02f7f1b,.uuid-37ea5a79-79bb-4fdd-aa74-4d6372f1f3ff,.uuid-4003dbd9-99f3-4a05-af98-4a43010e8131,.uuid-42f741a5-86d8-453b-86ae-7124e5260ec8,.uuid-55fbbeec-b5ef-4bd7-9d36-625570f69628,.uuid-60fe4700-80ae-4b15-b7af-87e4af7f0fc0,.uuid-793f102e-9e0d-4bb9-8681-8b93e86e5a4f,.uuid-8c944106-2bfe-4ada-96d1-52456b8fd0ff,.uuid-a7700132-7bc8-4fa4-b217-90122727ee54,.uuid-b5ae9b65-613c-427c-8645-790fac6ae5c5,.uuid-c1ba5ad2-70d8-4a4e-929b-df557eb50bd7,.uuid-e355542c-14e6-4210-a4fd-67672cd11897{stroke-width:2px}.uuid-160294f7-f953-4aca-9de2-f47bf02f7f1b,.uuid-37ea5a79-79bb-4fdd-aa74-4d6372f1f3ff,.uuid-42f741a5-86d8-453b-86ae-7124e5260ec8,.uuid-55fbbeec-b5ef-4bd7-9d36-625570f69628,.uuid-60fe4700-80ae-4b15-b7af-87e4af7f0fc0,.uuid-793f102e-9e0d-4bb9-8681-8b93e86e5a4f,.uuid-a7700132-7bc8-4fa4-b217-90122727ee54,.uuid-b5ae9b65-613c-427c-8645-790fac6ae5c5,.uuid-c1ba5ad2-70d8-4a4e-929b-df557eb50bd7,.uuid-d03f09f8-7f7c-4a93-8e5d-cbb0c02458cf,.uuid-e355542c-14e6-4210-a4fd-67672cd11897{stroke-miterlimit:10}.uuid-37ea5a79-79bb-4fdd-aa74-4d6372f1f3ff,.uuid-4003dbd9-99f3-4a05-af98-4a43010e8131,.uuid-d03f09f8-7f7c-4a93-8e5d-cbb0c02458cf{stroke:#e00}.uuid-0ee93840-0a69-4bf1-b5f5-4b340618efe8,.uuid-37ea5a79-79bb-4fdd-aa74-4d6372f1f3ff,.uuid-4003dbd9-99f3-4a05-af98-4a43010e8131{fill:#fff}.uuid-60fe4700-80ae-4b15-b7af-87e4af7f0fc0,.uuid-c1ba5ad2-70d8-4a4e-929b-df557eb50bd7{stroke:#fce3e3}.uuid-ed757845-6fef-422a-a354-22406b3d5b7f{fill:#fce3e3}.uuid-160294f7-f953-4aca-9de2-f47bf02f7f1b,.uuid-42f741a5-86d8-453b-86ae-7124e5260ec8,.uuid-55fbbeec-b5ef-4bd7-9d36-625570f69628,.uuid-793f102e-9e0d-4bb9-8681-8b93e86e5a4f,.uuid-8c944106-2bfe-4ada-96d1-52456b8fd0ff,.uuid-a7700132-7bc8-4fa4-b217-90122727ee54,.uuid-c1ba5ad2-70d8-4a4e-929b-df557eb50bd7,.uuid-e355542c-14e6-4210-a4fd-67672cd11897{stroke-linecap:round}.uuid-42f741a5-86d8-453b-86ae-7124e5260ec8,.uuid-e355542c-14e6-4210-a4fd-67672cd11897{stroke:#e8a997}.uuid-a32ae936-e098-4ea7-a7f7-0af6c1e3578d{fill:#7100ff}.uuid-160294f7-f953-4aca-9de2-f47bf02f7f1b{stroke:#724335}.uuid-8c944106-2bfe-4ada-96d1-52456b8fd0ff{stroke:#707070}.uuid-a7700132-7bc8-4fa4-b217-90122727ee54{stroke:#a66552}.uuid-55fbbeec-b5ef-4bd7-9d36-625570f69628,.uuid-b5ae9b65-613c-427c-8645-790fac6ae5c5{stroke:#fff}.uuid-793f102e-9e0d-4bb9-8681-8b93e86e5a4f{stroke:#000}.uuid-4003dbd9-99f3-4a05-af98-4a43010e8131,.uuid-8c944106-2bfe-4ada-96d1-52456b8fd0ff{stroke-linejoin:round}.uuid-281393f0-15f7-45a4-97b7-7f4154fc9791,.uuid-42f741a5-86d8-453b-86ae-7124e5260ec8{fill:#f7c8bb}.uuid-1bf5ccc5-6fb3-4ee7-9173-67d0001bce6a{fill:#f9a8a8}.uuid-3f3f5695-6b3c-4896-b89e-72a1b8faa2b8{fill:#5f0000}.uuid-2ada49a1-36d3-4b72-9006-7aa42f010d6c{fill:#a60000}.uuid-6b95bf6d-8563-41f8-9f13-bbfa285f850e{fill:#a66552}.uuid-124abf01-9bab-4411-98d9-e0052cb6d57c{fill:#ce8873}.uuid-6d87fa4a-911d-402c-9294-5fd221aa16e6{fill:#e00}.uuid-97faee26-0a00-48aa-a7fb-77ab1ba5c888{fill:#fbc5c5}.uuid-ba92305a-3e75-4634-b506-503727e71e5c{fill:#e8a997}</style></defs><g id="uuid-e8c9c925-e3f5-4240-afa5-4522bc1c865a" data-name="Red-10"><path d="M985.98 737.38H701.39l8.72 25.07s43.19 51.69 127.01 51.69 136.38-55.68 148.86-76.75Z" class="uuid-ed757845-6fef-422a-a354-22406b3d5b7f"/><path d="M214.8 379.42c4.36 0 8.53.79 12.38 2.24 8.14-15.09 23.75-25.56 41.88-26.45 10.25-29.79 38.51-51.19 71.77-51.19 29.4 0 54.9 16.72 67.5 41.17 5.26-1.59 10.84-2.45 16.63-2.45 31.72 0 57.43 25.71 57.43 57.43s-25.71 57.43-57.43 57.43H217.87c-26.78 0-38.28-23.54-38.28-42.98 0-19.44 15.76-35.21 35.21-35.21Z" class="uuid-6d87fa4a-911d-402c-9294-5fd221aa16e6"/><circle cx="558.91" cy="565.03" r="245.63" fill="#fce3e3" stroke="#fce3e3" stroke-miterlimit="10" stroke-width="2"/><circle cx="154.07" cy="678.73" r="114.07" class="uuid-ed757845-6fef-422a-a354-22406b3d5b7f"/><path fill="none" stroke="#e00" stroke-miterlimit="10" stroke-width="2" d="M69.86 650.52s14.63-59.12 76.13-64.05"/><path d="M592.89 809.28V427.41h-185.2l-1.46 326.38s59.22 70.07 186.65 55.48Z" class="uuid-0ee93840-0a69-4bf1-b5f5-4b340618efe8"/><path fill="none" stroke="#e00" stroke-dasharray="0 8.19" stroke-linecap="round" stroke-miterlimit="10" stroke-width="2" d="M616.37 803.91V407.85H391.89v361.14"/><path d="M407.7 485.37h185.19M407.7 544.15h185.19M407.7 602.94h185.19M407.7 659.22h185.19M407.7 720.51h185.19M437.86 779.29h155.03" class="uuid-37ea5a79-79bb-4fdd-aa74-4d6372f1f3ff"/><path d="M431.9 440.85h7.7v29.75h-7.7zM447.26 440.85h7.7v29.75h-7.7z" class="uuid-97faee26-0a00-48aa-a7fb-77ab1ba5c888"/><circle cx="562.44" cy="455.72" r="5.99" class="uuid-a32ae936-e098-4ea7-a7f7-0af6c1e3578d"/><circle cx="543.84" cy="455.72" r="5.99" class="uuid-a32ae936-e098-4ea7-a7f7-0af6c1e3578d"/><path d="M431.9 500.88h7.7v29.75h-7.7zM447.26 500.88h7.7v29.75h-7.7z" class="uuid-97faee26-0a00-48aa-a7fb-77ab1ba5c888"/><circle cx="562.44" cy="515.76" r="5.99" class="uuid-a32ae936-e098-4ea7-a7f7-0af6c1e3578d"/><circle cx="543.84" cy="515.76" r="5.99" class="uuid-a32ae936-e098-4ea7-a7f7-0af6c1e3578d"/><path d="M431.9 557.85h7.7v29.75h-7.7zM447.26 557.85h7.7v29.75h-7.7z" class="uuid-a32ae936-e098-4ea7-a7f7-0af6c1e3578d"/><circle cx="562.44" cy="572.72" r="5.99" class="uuid-a32ae936-e098-4ea7-a7f7-0af6c1e3578d"/><circle cx="543.84" cy="572.72" r="5.99" class="uuid-a32ae936-e098-4ea7-a7f7-0af6c1e3578d"/><path d="M431.9 617.12h7.7v29.75h-7.7zM447.26 617.12h7.7v29.75h-7.7z" class="uuid-a32ae936-e098-4ea7-a7f7-0af6c1e3578d"/><circle cx="566.62" cy="631.99" r="5.99" class="uuid-a32ae936-e098-4ea7-a7f7-0af6c1e3578d"/><circle cx="543.84" cy="631.99" r="5.99" class="uuid-97faee26-0a00-48aa-a7fb-77ab1ba5c888"/><path d="M431.9 676.98h7.7v29.75h-7.7zM447.26 676.98h7.7v29.75h-7.7z" class="uuid-a32ae936-e098-4ea7-a7f7-0af6c1e3578d"/><circle cx="566.62" cy="691.86" r="5.99" class="uuid-a32ae936-e098-4ea7-a7f7-0af6c1e3578d"/><circle cx="543.84" cy="691.86" r="5.99" class="uuid-97faee26-0a00-48aa-a7fb-77ab1ba5c888"/><path d="M431.9 737.18h7.7v29.75h-7.7z" class="uuid-a32ae936-e098-4ea7-a7f7-0af6c1e3578d"/><path d="M447.26 737.18h7.7v29.75h-7.7z" class="uuid-97faee26-0a00-48aa-a7fb-77ab1ba5c888"/><circle cx="566.62" cy="752.05" r="5.99" class="uuid-a32ae936-e098-4ea7-a7f7-0af6c1e3578d"/><circle cx="543.84" cy="752.05" r="5.99" class="uuid-97faee26-0a00-48aa-a7fb-77ab1ba5c888"/><path d="m558.91 305.02 248.93-1.26 2.07 295.56s-36.62 204.59-251 210.53V305.02" class="uuid-c1fa2055-3b36-4334-8868-6c3a5f6dc377"/><path d="M558.91 376.96h249.44M558.91 451.58l249.96-.49M558.91 632.23h237.68M558.91 708.49h198.98M558.91 782.27h114.71" class="uuid-b5ae9b65-613c-427c-8645-790fac6ae5c5"/><circle cx="769.88" cy="414.79" r="3.84" class="uuid-0ee93840-0a69-4bf1-b5f5-4b340618efe8"/><circle cx="591.85" cy="747.22" r="4.42" class="uuid-0ee93840-0a69-4bf1-b5f5-4b340618efe8"/><circle cx="622.43" cy="747.22" r="4.42" class="uuid-0ee93840-0a69-4bf1-b5f5-4b340618efe8"/><circle cx="593.33" cy="414.79" r="3.84" class="uuid-0ee93840-0a69-4bf1-b5f5-4b340618efe8"/><circle cx="758.71" cy="341.47" r="3.51" class="uuid-0ee93840-0a69-4bf1-b5f5-4b340618efe8"/><circle cx="776.38" cy="341.47" r="3.51" class="uuid-0ee93840-0a69-4bf1-b5f5-4b340618efe8"/><path d="M589.36 341.6h152.55" class="uuid-55fbbeec-b5ef-4bd7-9d36-625570f69628"/><circle cx="755.56" cy="671.58" r="4.05" class="uuid-d03f09f8-7f7c-4a93-8e5d-cbb0c02458cf"/><circle cx="742.72" cy="671.58" r="4.05" class="uuid-d03f09f8-7f7c-4a93-8e5d-cbb0c02458cf"/><circle cx="769.24" cy="671.58" r="4.05" class="uuid-d03f09f8-7f7c-4a93-8e5d-cbb0c02458cf"/><path d="M585.6 671.58h129.89" class="uuid-b5ae9b65-613c-427c-8645-790fac6ae5c5"/><path d="M616.28 414.91h129.89" class="uuid-55fbbeec-b5ef-4bd7-9d36-625570f69628"/><path fill="none" stroke="#f9a8a8" stroke-miterlimit="10" stroke-width="2" d="M837.12 450.33c100.46 0 181.9 81.44 181.9 181.9s-81.44 181.9-181.9 181.9-181.9-81.44-181.9-181.9 81.44-181.9 181.9-181.9"/><path d="M329.28 488.16c2.95-.16 5.92-.24 8.92-.24 89.01 0 161.16 72.15 161.16 161.16S427.21 810.24 338.2 810.24s-161.16-72.15-161.16-161.16 67.38-156.29 152.24-160.92" class="uuid-0ee93840-0a69-4bf1-b5f5-4b340618efe8"/><path d="M196.37 572.86c18.58-34.56 49.41-61.56 86.67-75.19" class="uuid-c1ba5ad2-70d8-4a4e-929b-df557eb50bd7"/><path d="M715.51 496.95v113.12h-58.96s7.4-70.08 58.96-113.12Z" class="uuid-6d87fa4a-911d-402c-9294-5fd221aa16e6"/><path d="m808.88 452.24 2.46 67.35s23.37 153.32-102.65 241.47c0 0-92.79-87.19-32.31-216.59 0 0 39.13-77.65 132.5-92.23Z" class="uuid-1bf5ccc5-6fb3-4ee7-9173-67d0001bce6a"/><path d="M515.31 435.07h198.11V614.9H515.31z" class="uuid-c1fa2055-3b36-4334-8868-6c3a5f6dc377"/><path d="M519.73 430.84h195.78v179.23H519.73z" class="uuid-37ea5a79-79bb-4fdd-aa74-4d6372f1f3ff"/><path d="M519.73 430.84h195.78v38.03H519.73z" class="uuid-6d87fa4a-911d-402c-9294-5fd221aa16e6"/><circle cx="669.14" cy="449.62" r="6.24" class="uuid-0ee93840-0a69-4bf1-b5f5-4b340618efe8"/><circle cx="693.31" cy="449.62" r="6.24" class="uuid-0ee93840-0a69-4bf1-b5f5-4b340618efe8"/><g clip-path="url(#uuid-ebfc3341-a93b-43c4-9c0d-c3c38bfdeb7c)"><path d="M337.95 457.61s-40.96 64.89-16.59 170.16c22.87 98.76 110.53 147.55 110.53 147.55l100.97 78 2.7-381.68-197.61-14.03Z" class="uuid-1bf5ccc5-6fb3-4ee7-9173-67d0001bce6a"/></g><path d="m450.14 589.42 22.28 4.54s-.96 16.52-9.2 25.87l-23.63-8.14s6.19-2.34 10.55-22.28ZM376.91 519.13l22.74.29s2.15 16.41-4.19 27.14l-24.74-3.57s5.64-3.46 6.19-23.86Z" class="uuid-c1fa2055-3b36-4334-8868-6c3a5f6dc377"/><path d="M1016.09 316.07c-2.96 0-5.79.54-8.41 1.52-5.53-10.25-16.13-17.36-28.44-17.96-6.96-20.23-26.15-34.76-48.74-34.76-19.96 0-37.28 11.35-45.83 27.96-3.57-1.08-7.36-1.66-11.29-1.66-21.54 0-39 17.46-39 39s17.46 39 39 39H1014c18.18 0 25.99-15.98 25.99-29.19s-10.7-23.91-23.91-23.91Z" class="uuid-6d87fa4a-911d-402c-9294-5fd221aa16e6"/><circle cx="932.69" cy="319.32" r="7.55" class="uuid-0ee93840-0a69-4bf1-b5f5-4b340618efe8"/><path d="M932.69 339.77c-1.28 0-2.32-1.04-2.32-2.32v-10.58c0-1.28 1.04-2.32 2.32-2.32s2.32 1.04 2.32 2.32v10.58c0 1.28-1.04 2.32-2.32 2.32Z" class="uuid-0ee93840-0a69-4bf1-b5f5-4b340618efe8"/><path d="M500.29 648.25c0-84.35-64.57-136.35-92.6-144.37l-.03 255.37c8.31 7.74 16.6 11.52 27.46 18.66 6.72-4.06 65.17-48.25 65.17-129.65Z" class="uuid-ed757845-6fef-422a-a354-22406b3d5b7f"/><path d="M436.87 549.1h22.74s2.35 16.38-3.85 27.19l-29.44-2.01s10.26-4.78 10.55-25.18ZM432.51 651.17l22.74.29s2.15 16.41-4.19 27.14l-24.74-3.57s5.64-3.46 6.19-23.86Z" class="uuid-c1fa2055-3b36-4334-8868-6c3a5f6dc377"/><path d="M807.29 632.23s-2.84 7.15-1.42 30.45c1.06 17.37 1.17 36.07 1.16 44.45 0 2.64-1.84 4.92-4.42 5.5l-8.52 1.89c-.67.15-1.37.18-2.05.08l-17.25-2.46c-1.11-.16-2.23.17-3.09.89l-12.6 10.68c-.81.69-1.32 1.71-1.22 2.77.09 1.07.83 1.84 3.62-.07 3.51-2.39 7.36-5.67 9.42-7.48.93-.81 2.23-1.03 3.37-.56l6.99 3.19 6.3-3.13c1.27-.63 2.37-1.17 2.88-1.19l37.82 8.85 1.01-.54c4.18-2.22 6.8-6.57 6.8-11.31v-3.37l-2.66-65.47-26.17-13.18ZM818.14 536.43s-17.39 9.27-10.36 40.08c0 0 3.67 6.7 5.43 15.17 1.76 8.46 4.95 15.33 9.26 19s8.83 11.62 18.31 10.98l-2.5 23.98 14.53 25.41 24.42-5.14 18.04-32.57 10.22-46.3-39.27-37.52-48.07-13.1Z" class="uuid-124abf01-9bab-4411-98d9-e0052cb6d57c"/><path d="M827.61 570.35c3.67-2.61 7.64-5.75 12.41-5.54 2.59.02 5.44.13 8 .36.23.02.4.22.38.45-.02.21-.19.37-.4.39-1.77.1-6.24.35-7.95.43-4.26.07-7.83 3.18-11.24 5.49-1.05.79-2.26-.76-1.23-1.58Z" class="uuid-c1fa2055-3b36-4334-8868-6c3a5f6dc377"/><circle cx="835.55" cy="578.27" r="2.55" class="uuid-c1fa2055-3b36-4334-8868-6c3a5f6dc377"/><path d="M831.6 578.27s2.81-5.48 11.95-3.14" class="uuid-793f102e-9e0d-4bb9-8681-8b93e86e5a4f"/><path d="M840.77 621.65s19.17 1.29 25.19-27.62c0 0 1.34.63 1.53 2 .9 6.73-6.93 19.58-13.43 27.77-3 3.79-2.81 8.82-1.6 11.56 1.13 2.56 1.28 3.62 5.92 14.99 2.34 5.72 4.44 11.78 4.44 11.78l-1.91 1.5s-10.2-17.06-12.99-20.93c-2.96-4.1-7.96-12.43-7.14-21.04Z" class="uuid-6b95bf6d-8563-41f8-9f13-bbfa285f850e"/><path d="M833.95 542.7s-12.98 1.46-15.03 15.21c-1.64 11.03.41 17.59.41 17.59s2.16 6.98 2.73 14.87c.57 7.89-1.27 8.14 4.16 9.48 0 0 3.18 2.16 3.75 7.86.57 5.7 4.62 12.37 10.8 13.94 0 0-6.38 3.13-18.31-10.98-11.93-14.12-7.06-14.38-11.16-23.1-4.1-8.72 2.17-13.05 2.27-25.72.1-12.67 11.2-19.15 20.38-19.15Z" class="uuid-6b95bf6d-8563-41f8-9f13-bbfa285f850e"/><circle cx="813.1" cy="583.71" r="2.55" class="uuid-c1fa2055-3b36-4334-8868-6c3a5f6dc377"/><path d="M817.08 582.91s-2.81-2.63-7.02-.61" class="uuid-793f102e-9e0d-4bb9-8681-8b93e86e5a4f"/><path d="m815.15 575.76-7.54.29c-.68.03-.78-.99-.11-1.1l7.45-1.18c1.38-.18 1.59 1.9.2 1.99Z" class="uuid-c1fa2055-3b36-4334-8868-6c3a5f6dc377"/><path fill="#724335" stroke-width="0" d="M844.46 602.65c-1.89 3.85-5.85 6.41-9.86 7.73l-1.41.39c-.26.08-.38.11-.59.02-.2-.09-.41-.25-.62-.38-.99-.69-1.43.74-2.09 1.09-.39.16-.87.03-1.31-.01-1.16-.21-2.51-.58-3.33-1.69l.05-.73c.79-1.24 1.11-2.31 2.28-3.1 1.05-.98 2.54.83 3.58-.38.35-.37.84-.81 1.35-.71 4.11.18 8.12-.45 11.95-2.22Z"/><path d="M843.75 603.91s-3.14 8.21-10.45 9.79c-6.9 1.49-8.24-3.3-8.24-3.3s10.94-.85 18.69-6.48Z" class="uuid-6b95bf6d-8563-41f8-9f13-bbfa285f850e"/><path d="M820.19 579.32s2.15 5.31 1.87 11.06c-.29 5.74-.86 8.95 4.02 8.95s7.15-2.77 7.15-2.77M835.29 595.17s1.5-.35 1.5-3.39" class="uuid-160294f7-f953-4aca-9de2-f47bf02f7f1b"/><path d="M840.77 621.65s-1.28 6.64 3.64 15.42c4.93 8.78 15.85 22.06 16.49 26.55 0 0 9.42-6.64 12.63-15.42s3.71-31.71 3.71-31.71l26.06-26.91s6.85.04 14.56 2.31c7.71 2.27 13.11 2.14 13.11 2.14S907 608.35 911.32 647.4c4.32 39.06 2.59 50.85 2.59 50.85h-81.28s-4.32-8.19-3.89-24.91c.43-16.72-2.33-19.17-2.33-19.17s-9.78 2.88-11.94-8.5-11.96-9.66-11.82-20.32c0 0 5.5-1.4 8.95-5.31s9.66-10.83 9.66-10.83 5.6 6.92 10.73 10.25c5.13 3.33 8.78 2.18 8.78 2.18Z" class="uuid-0ee93840-0a69-4bf1-b5f5-4b340618efe8"/><path d="M833.95 542.7s-16.09-.98-18.9 18.81c-2.81 19.79-4.35 23.06-4.35 23.06s1.85 1.48 2.4 6.64c.56 5.16 3.97 12.82 8.16 18.01 0 0-3.25 3.29-6.21 6.92s-6.89 7.73-8.95 7.89c0 0-2.85-4.89-12.16-9.15-9.31-4.26-10.57-14.93-8.05-25.29 2.52-10.37-10.41-19.83-8.52-37.35 1.89-17.52 11.83-14.83 21.14-30.61s27.18-11.99 33.08-8.21c0 0 20.26-18.15 43.14-.16s13.57 46.23 27.46 53.02c13.89 6.79 18.78 16.72 13.73 25.24 0 0-5.84-2.14-12.62-1.94 0 0 7.95 7.82 2.18 13.77-5.77 5.96-2.57 11.61-5.61 17.24-3.04 5.63-11.6 6.5-13.56 8.38 0 0 .63-5.17-2.51-8.07s-10.46-4.48-12.83-14.05c-2.37-9.58-3.85-14.91-14.41-19.35-10.56-4.44 2.27-20.34-3.75-27.35-6.02-7.01-17.07-5.39-18.85-17.45Z" class="uuid-c1fa2055-3b36-4334-8868-6c3a5f6dc377"/><path d="M949.81 609.15c-10.57-12.58-20.42-12.06-20.42-12.06-5.03-.03-11.83 16.14-14.72 23.66-1.22 2.38-4.31 15.7-4.12 29.61.3 22.35 1.64 54.26 2.07 54.74 2.94 3.24-68.48 17.83-68.48 17.83l-2.35.55c-5.04 1.19-10.29 1.19-15.33.01l-29.9-6.99c-2.22-.52-4.54-.25-6.58.76l-23.15 11.48c-1.78.88-2.22 3.33-.73 4.64.78.68 2.33 1.73 4.29 1.07 0 0-5.04 2.92-1.79 6.17 2.2 2.2 15.38-5.57 15.38-5.57s-7.96 3.64-5.7 7.11c1.29 1.98 14.5-3.24 20.16-5.73 0 0 1.32-.16 3.37 1.63 3.68 3.22 9.71 7.89 13.85 8 6.34.17 26.03-4.17 26.03-4.17l.77-.24c2.83-.87 5.77-1.31 8.73-1.3l79.5.24 5.18.02c2.57 0 4.9-1.5 5.96-3.84l7.03-15.59c1.87-4.14 3.23-8.33 4.46-12.52 1.24-4.19 2.24-8.41 3.12-12.63 1.73-8.45 2.89-16.95 3.59-25.48.19-2.34 2.17-46.63-10.24-61.4Z" class="uuid-124abf01-9bab-4411-98d9-e0052cb6d57c"/><path d="M943.81 602.01s-11.22-9.39-13.02-1.09c-1.23 5.66-4.46 5.62-2.17 7.55-8.17 1.6 4.57 12.95 4.57 12.95-8.95.47-10.37.79-11.53 12.03-1.16 11.25-11.18 14.79-11.18 14.79l.64 26.96c-.29-9.58 7.17-14.35 13.63-24.21 6.46-9.86 1.16-16.02 9.86-19.38 9.16-3.53 5.86-15.36 3.95-18.79-.06-5.19-2.92-7.08 5.24-10.82Z" class="uuid-6b95bf6d-8563-41f8-9f13-bbfa285f850e"/><path d="M910.34 648.05s-2.61-27.56 8.01-43.47c10.63-15.91 22.99-10.49 22.99-10.49s5.42 3.69 8.46.65c0 0 .43 8.66-6.94 8.99-7.37.33-11.71 3.8-8.46 9.01 3.25 5.2 1.52 10.84-5.42 10.84s-7.16 3.04-7.16 10.19-8.11 13.16-11.48 14.27ZM832.63 698.26s6.33 17.83 23.16 22.22c0 0 53.81-9.72 56.83-15.38l-.53-6.84h-79.46ZM963.24 699.9s-2.58-20.97-3.67-24.28c-2.2 33.08-17.73 61.15-17.73 61.15l6.23-14.58c6.79-6.97 9.34-8.55 15.89-20.84-.55-.98-.71-1.45-.71-1.45Z" class="uuid-0ee93840-0a69-4bf1-b5f5-4b340618efe8"/><path d="M973.57 714.1c-5.9-6.7-8.52-10.78-9.62-12.75-4.62 8.69-8.39 13.96-15.89 20.84 0 0-4.59 10.43-6.53 15.17h43.26c1.41-1.86 3.07-3.81 4.07-5.91-4.21-4.78-10.29-11.67-15.29-17.35Z" class="uuid-c1fa2055-3b36-4334-8868-6c3a5f6dc377"/><path d="M840.68 540.12s1.42 9.14 11.24 11.18 19.72 7.49 16.88 25.11c-2.84 17.62 13.94 13.17 13.94 13.17" class="uuid-8c944106-2bfe-4ada-96d1-52456b8fd0ff"/><path d="M707.12 760.93c-38.63 30.17-94.36 49.74-149.04 49.74-44.77 0-86.74-11.98-122.88-32.9M324.6 488.5c32.17-98.18 124.54-169.1 233.48-169.1" class="uuid-60fe4700-80ae-4b15-b7af-87e4af7f0fc0"/><path d="m778.28 738.66 17.9-9.94c1.32-.73 2.94-.7 4.23.09l6.24 3.83" class="uuid-a7700132-7bc8-4fa4-b217-90122727ee54"/><path d="m776.86 734.6 17.4-13.18c.74-.56 1.75-.62 2.55-.14l10.55 6.31" class="uuid-a7700132-7bc8-4fa4-b217-90122727ee54"/><path d="M776.59 729.65s13.65-12.28 17.02-12.09 12.91 4.17 12.91 4.17" class="uuid-a7700132-7bc8-4fa4-b217-90122727ee54"/><path d="M276.39 532.39s8.86 13.25 11.63 16.7c2.63 3.29 2.56 5.11 2.75 8.98.18 3.87 2.46 6.91 5.86 10.43 3.4 3.51 7.9 2.72 6.75 6.52s-3.97 5.22-5.06 6.64c0 0 .39 1.57 1.4 5.05 1.1 3.78-1.64 4.77-1.64 4.77s2.21.49 2.21 1.55-1.55 3.26-.57 6.93c.99 3.67 1.77 9.85-5.97 12.51-7.73 2.66-15.08 2.51-19.23 2.03 0 0-.95 13.46 5.14 24.62 6.09 11.17-3.6 19.97-3.6 19.97l-52.92-16.51 3.72-7.8c3.29-6.9 4.39-14.63 3.16-22.17-.62-3.78-1.48-8.04-2.69-12.18 0 0-16.39-9.37-9.44-38.17 6.95-28.8 19.34-49.82 58.49-29.87Z" class="uuid-281393f0-15f7-45a4-97b7-7f4154fc9791"/><path d="M256.46 593.93s-14.97 2.02-15.91 12.09c-1.47 15.63-2.44 15.36-3.43 23.63-6.42-2.7-5.49-2.14-7.6-2.44 0 0 1.99-6.95-.88-21.9 0 0 8.42-6.55 12.83-22.92 0 0 3.55 10.56 14.99 11.55Z" class="uuid-ba92305a-3e75-4634-b506-503727e71e5c"/><path d="M288.79 560.31c-3.27-.2-6.86-.76-9.99.37-1.84.87-3.52 2.11-4.92 3.6-.15.17-.43-.06-.28-.24 1.77-2.18 4.03-4.36 6.83-5.02 2.82-.61 5.61-.69 8.48-.71.55 0 1 .45 1 1 0 .59-.53 1.06-1.12.99Z" class="uuid-c1fa2055-3b36-4334-8868-6c3a5f6dc377"/><path d="M289.05 563.7s-4.65-1.94-9.31 3.63" class="uuid-793f102e-9e0d-4bb9-8681-8b93e86e5a4f"/><circle cx="286.1" cy="565.84" r="2.54" class="uuid-c1fa2055-3b36-4334-8868-6c3a5f6dc377"/><path d="M291.93 563.26s1.64 4.99 8.22 7.65c6.65 2.69 2.49 6.33.11 8.9M297.09 581.4s-2.04.06-3.07-.43" class="uuid-e355542c-14e6-4210-a4fd-67672cd11897"/><path fill="none" stroke="#ce8873" stroke-linecap="round" stroke-miterlimit="10" stroke-width="2" d="M298.07 591.48s-.51 0-2.52.55-5.05.66-5.4-.21"/><path d="m420.8 607.98 3.73-6.2c1.39-2.31 2.12-4.95 2.12-7.64v-10.2s1.05-1.22 1.19-2.89c0 0 2.95.83 2.89-3.49-.05-3.22.25-5.28-.42-5.94 0 0 2 3.22 3.88 1.44 1.89-1.78-2.44-7.1-2.44-7.1s-1.55-2-3.33-2c0 0 3.05-3.11-.58-3.66-3.63-.55-14.62.44-14.62.44s-1.78.55-4.55 3.22c-2.77 2.66-6.21 6.44-6.21 7.32s-3.11 7.21 1.44 15.54c4.55 8.32 1.07 14.28 1.07 14.28s11.04 6.52 15.84 6.88Z" class="uuid-281393f0-15f7-45a4-97b7-7f4154fc9791"/><path d="M406.11 598.4s1.08-4.92-3.5-14.39c-4.58-9.48 6.06-20.05 6.06-20.05s3.32-3.34 9.37-3.58" class="uuid-42f741a5-86d8-453b-86ae-7124e5260ec8"/><path stroke="#000" stroke-linecap="round" stroke-linejoin="round" stroke-width="2" d="M386.59 579.85h0c.39 1.12 1.61 1.7 2.72 1.3l48.88-17.64-1.22-3.39-48.69 16.28c-1.42.48-2.18 2.02-1.69 3.44Z"/><path d="m436.97 559.08 6.62.15c.48.01.69.62.32.92l-5.01 4.12" class="uuid-0ee93840-0a69-4bf1-b5f5-4b340618efe8"/><path d="M411.95 583.38s11.75-19.79 16.48-19.42c4.73.37-3.99 10.74-7.74 21.29" class="uuid-42f741a5-86d8-453b-86ae-7124e5260ec8"/><path d="M278.88 638.81s53.71 27.1 55.96 170.59c0 0-20.92 1.27-40.22-3.5 0 0-1.29-82.16-51.68-169.43 0 0 27.24 13.47 35.93 2.33Z" class="uuid-0ee93840-0a69-4bf1-b5f5-4b340618efe8"/><path d="M426.65 583.94s-3.37.96-3.62-4.18" class="uuid-e355542c-14e6-4210-a4fd-67672cd11897"/><path fill="#00db00" stroke="#e8a997" stroke-linecap="round" stroke-miterlimit="10" stroke-width="2" d="M427.84 581.05s-1.71-3.86-1.86-6.98"/><path d="M226.25 629.43c1.59-1.68 3.68-2.78 5.83-1.92 15.67 6.3 62.16 23.35 65.12 177.56 0 0-78.29-12.95-111.83-102.52 0 0 1.44-29 13.83-47.99 4.9-7.51 20.34-18.03 27.04-25.13ZM279.66 639.13s63.52 29.28 80.37 17.49c0 0 36.23-44.28 43.54-56.39 0 0 14.48 7.74 23.47 7.82 0 0-21.44 77.23-49.87 101.73-2.79 2.4-6.39 3.65-10.07 3.52-9.28-.33-34.3-.65-48.62-3.86-17.77-53.58-38.81-70.33-38.81-70.33Z" class="uuid-2ada49a1-36d3-4b72-9006-7aa42f010d6c"/><path fill="#7100ff" stroke="#e8a997" stroke-linecap="round" stroke-miterlimit="10" stroke-width="2" d="m430.83 579.47-.1-2.92c-.1-2.92-.65-5.81-1.65-8.56h0"/><path d="M230.03 703.55s1.51 24.44 4.94 41.01c3.42 16.57 4.27 27.33 12.08 37.98 0 0-17.96-13.5-25.94-21.97 0 0 .33-10.97 4.67-28.3 4.34-17.32 4.25-28.73 4.25-28.73Z" class="uuid-3f3f5695-6b3c-4896-b89e-72a1b8faa2b8"/><path d="M230.03 698.71s1.23 9.21-5.45 40.92c-1.87 8.87-2.88 14.06-3.47 19.96" class="uuid-793f102e-9e0d-4bb9-8681-8b93e86e5a4f"/><path fill="none" stroke="#a60000" stroke-linecap="round" stroke-miterlimit="10" stroke-width="2" d="M309.7 681.51s16.15 33.29 25.14 127.89"/><path d="M278.29 534.83s-5.75-13.41-30.84-12.32c-27.6 1.2-38.61 22.27-39.96 27.2 0 0-3.01-4.03-10.53-3.09-7.44.92-10.97 7.35-11.09 16.07-.16 11.63 5.52 16.4 11.71 16.4 8.52 0 9.76-3.51 9.76-3.51-.39.65-.29 4.29 1.02 9.2 1.8 6.74 7.82 21.1 20.99 21.1 10.78-12.58 12.12-23.5 12.12-23.5s-1.23-2.44-.17-4.87c1.84-4.21 7.26-8.38 14.19.23l3.48 3.23c1.77-5.14 2.54-17.71 2.54-17.71l4.95-2.83c.32-.32.35-.82.08-1.18-.54-.73-2.79-3.77-3.26-4.51-3.57-5.59-5.61-8.4-1.08-11.42 4.52-3.02 13.86-5.74 16.1-8.48Z" class="uuid-c1fa2055-3b36-4334-8868-6c3a5f6dc377"/><path d="M255.48 577.74s-5.72-8.1-11.22-4.16c-6.01 4.3-2.84 11.65 2.37 16.07 5.56 4.71 10.67 5.82 13.23 2.17" class="uuid-e355542c-14e6-4210-a4fd-67672cd11897"/><path d="M274.52 614.51s-9.39-1.21-16.82-3.79c0 0 3.95 4.77 17.14 12.45 0 0-.52-.9-.32-8.66Z" class="uuid-ba92305a-3e75-4634-b506-503727e71e5c"/><path d="M265.33 529.64s-24.33-6.72-39.72 6.08M205.82 553.53s-1.93-3.76-8.15-3.16c-5.19.5-6.36 4.72-6.36 4.72" class="uuid-8c944106-2bfe-4ada-96d1-52456b8fd0ff"/><path d="M438.52 774.89c-27.39 21.51-62.58 35.35-100.11 35.35-43.05 0-82.58-16.39-111.49-43.88 0 0-30.46-29.32-42.45-66.59" class="uuid-c1ba5ad2-70d8-4a4e-929b-df557eb50bd7"/><path d="M913.02 705.52s7.68.68 13.45 8.87M806.52 710.28s4.89-1.73 10.47 3.2" class="uuid-a7700132-7bc8-4fa4-b217-90122727ee54"/><path d="M835.87 704.72s-7.27-8.6-7.17-29.09c.1-20.49-2.3-21.44-2.3-21.44-1.85.39-3.38.46-4.68.23-.16-.07-.32-.14-.49-.22 0 0 .01.04.03.13-3.56-.84-6.06-3.82-6.8-8.64-1.01-6.67-7.75-11.29-7.75-11.29s6.99 3.84 5.04 14.9c-1.84 10.41 10.89 15.96 10.89 15.96s-1.93 22.3 1.22 31.57c3.99 11.73-4.74 21.64-8.9 23.66l16.34 3.77s6.61-3.39 4.57-19.54Z" class="uuid-6b95bf6d-8563-41f8-9f13-bbfa285f850e"/><path d="M776.13 748.99h44.77l5.93-8.25h-50.7v8.25z" class="uuid-c1fa2055-3b36-4334-8868-6c3a5f6dc377"/><path d="M652.09 748.99h128.13l-18.07-96.25H634.02l18.07 96.25z" class="uuid-3f3f5695-6b3c-4896-b89e-72a1b8faa2b8"/><path d="M633.31 652.74s12 53.26 44.44 60.74c43.92 10.13 96.51.66 102.47 35.51H652.09l-18.78-96.25Z" class="uuid-c1fa2055-3b36-4334-8868-6c3a5f6dc377"/><path fill="none" stroke="#707070" stroke-linecap="round" stroke-miterlimit="10" stroke-width="2" d="M831.6 533.65s-16.43-7.68-21.36 6.47c-3.52 10.1-12.11 6.91-13.23 18.45-1.44 14.74 7.84 15.98 2.53 31.52-3.99 11.7 6.38 19.03 8.02 19.45"/><path d="M532.87 449.85h110.75" class="uuid-55fbbeec-b5ef-4bd7-9d36-625570f69628"/><path d="M623.72 484.98h78.44v34.23h-78.44zM623.82 529.14h79.42v71.99h-79.42zM528.87 484.95h84.75v116.18h-84.75z" class="uuid-97faee26-0a00-48aa-a7fb-77ab1ba5c888"/><path d="M532.87 480.95h84.75v116.18h-84.75zM627.75 480.95h78.44v34.23h-78.44zM627.75 526.2h78.44v70.88h-78.44z" class="uuid-4003dbd9-99f3-4a05-af98-4a43010e8131"/><path d="M283.05 497.67c12.78-4.68 26.32-7.78 40.39-9.08l2.03-.19" class="uuid-c1ba5ad2-70d8-4a4e-929b-df557eb50bd7"/></g></svg>
