<?xml version="1.0" encoding="UTF-8" standalone="no"?>
<svg
   width="191.88"
   height="191.88"
   viewBox="0 0 191.88 191.88"
   version="1.1"
   id="svg24"
   xmlns="http://www.w3.org/2000/svg"
   xmlns:svg="http://www.w3.org/2000/svg">
  <defs
     id="defs28" />
  <g
     id="uuid-7901f878-ce00-441f-ac26-ddd3654d4f79"
     transform="matrix(5.33,0,0,5.33,-5.3299976,-5.3299976)">
    <rect
       x="1"
       y="1"
       width="36"
       height="36"
       rx="9"
       ry="9"
       stroke-width="0"
       id="rect2" />
    <path
       d="m 28,2.25 c 4.27336,0 7.75,3.47664 7.75,7.75 v 18 c 0,4.27336 -3.47664,7.75 -7.75,7.75 H 10 C 5.72664,35.75 2.25,32.27336 2.25,28 V 10 C 2.25,5.72664 5.72664,2.25 10,2.25 H 28 M 28,1 H 10 C 5.02944,1 1,5.02943 1,10 v 18 c 0,4.97057 4.02944,9 9,9 h 18 c 4.97056,0 9,-4.02943 9,-9 V 10 C 37,5.02943 32.97056,1 28,1 Z"
       fill="#4d4d4d"
       stroke-width="0"
       id="path4" />
  </g>
  <g
     id="uuid-c3ca6891-6e18-42cb-852b-3dedd6c31e68"
     transform="matrix(5.33,0,0,5.33,-5.3299976,-5.3299976)">
    <path
       d="m 26.44238,25.55811 -3.77374,-3.77374 c 0.59143,-0.77704 0.95636,-1.7348 0.95636,-2.78436 0,-2.55029 -2.0752,-4.625 -4.625,-4.625 -2.55029,0 -4.625,2.07471 -4.625,4.625 0,2.55029 2.07471,4.625 4.625,4.625 1.04944,0 2.00726,-0.36493 2.78436,-0.95636 l 3.77325,3.77325 c 0.12207,0.12207 0.28223,0.18311 0.44238,0.18311 0.16015,0 0.32031,-0.06104 0.44238,-0.18311 0.24316,-0.24414 0.24316,-0.63965 0,-0.88379 z M 15.625,19 c 0,-1.86084 1.51416,-3.375 3.375,-3.375 1.86133,0 3.375,1.51416 3.375,3.375 0,1.86084 -1.51367,3.375 -3.375,3.375 -1.86084,0 -3.375,-1.51416 -3.375,-3.375 z"
       fill="#ee0000"
       stroke-width="0"
       id="path7" />
    <path
       d="m 27,13.625 c 1.44727,0 2.625,-1.17773 2.625,-2.625 0,-1.44727 -1.17773,-2.625 -2.625,-2.625 -1.44727,0 -2.625,1.17773 -2.625,2.625 0,0.4967 0.14661,0.95654 0.38727,1.35303 l -1.20465,1.20508 c -0.24414,0.24414 -0.24316,0.63965 9.8e-4,0.88379 0.12109,0.12207 0.28125,0.18311 0.44141,0.18311 0.16016,0 0.32031,-0.06104 0.44238,-0.18311 l 1.2041,-1.20447 c 0.39661,0.24091 0.85663,0.38757 1.35352,0.38757 z m 0,-4 c 0.75781,0 1.375,0.6167 1.375,1.375 0,0.7583 -0.61719,1.375 -1.375,1.375 -0.37811,0 -0.72107,-0.15369 -0.96997,-0.40173 -7.3e-4,-7.3e-4 -9.8e-4,-0.0018 -0.0017,-0.0026 -6.1e-4,-6.1e-4 -0.0015,-7.9e-4 -0.0021,-0.0014 -0.24762,-0.24878 -0.40118,-0.59137 -0.40118,-0.9693 0,-0.7583 0.61719,-1.375 1.375,-1.375 z"
       fill="#ffffff"
       stroke-width="0"
       id="path9" />
    <path
       d="m 19,8.375 c -1.17188,0 -2.125,0.95312 -2.125,2.125 0,1.17188 0.95312,2.125 2.125,2.125 1.17188,0 2.125,-0.95312 2.125,-2.125 0,-1.17188 -0.95312,-2.125 -2.125,-2.125 z m 0,3 c -0.48242,0 -0.875,-0.39258 -0.875,-0.875 0,-0.48242 0.39258,-0.875 0.875,-0.875 0.48242,0 0.875,0.39258 0.875,0.875 0,0.48242 -0.39258,0.875 -0.875,0.875 z"
       fill="#ffffff"
       stroke-width="0"
       id="path11" />
    <path
       d="m 19,25.375 c -1.17188,0 -2.125,0.95312 -2.125,2.125 0,1.17188 0.95312,2.125 2.125,2.125 1.17188,0 2.125,-0.95312 2.125,-2.125 0,-1.17188 -0.95312,-2.125 -2.125,-2.125 z m 0,3 c -0.48242,0 -0.875,-0.39258 -0.875,-0.875 0,-0.48242 0.39258,-0.875 0.875,-0.875 0.48242,0 0.875,0.39258 0.875,0.875 0,0.48242 -0.39258,0.875 -0.875,0.875 z"
       fill="#ffffff"
       stroke-width="0"
       id="path13" />
    <path
       d="m 27.5,16.875 c -1.17188,0 -2.125,0.95312 -2.125,2.125 0,1.17188 0.95312,2.125 2.125,2.125 1.17188,0 2.125,-0.95312 2.125,-2.125 0,-1.17188 -0.95312,-2.125 -2.125,-2.125 z m 0,3 c -0.48242,0 -0.875,-0.39258 -0.875,-0.875 0,-0.48242 0.39258,-0.875 0.875,-0.875 0.48242,0 0.875,0.39258 0.875,0.875 0,0.48242 -0.39258,0.875 -0.875,0.875 z"
       fill="#ffffff"
       stroke-width="0"
       id="path15" />
    <path
       d="m 12.625,19 c 0,-1.17188 -0.95312,-2.125 -2.125,-2.125 -1.17188,0 -2.125,0.95312 -2.125,2.125 0,1.17188 0.95312,2.125 2.125,2.125 1.17188,0 2.125,-0.95312 2.125,-2.125 z m -3,0 c 0,-0.48242 0.39258,-0.875 0.875,-0.875 0.48242,0 0.875,0.39258 0.875,0.875 0,0.48242 -0.39258,0.875 -0.875,0.875 -0.48242,0 -0.875,-0.39258 -0.875,-0.875 z"
       fill="#ffffff"
       stroke-width="0"
       id="path17" />
    <path
       d="M 13.23743,12.35364 C 13.47834,11.95703 13.625,11.49689 13.625,11 13.625,9.55273 12.44727,8.375 11,8.375 9.55273,8.375 8.375,9.55273 8.375,11 c 0,1.44727 1.17773,2.625 2.625,2.625 0.49689,0 0.95703,-0.14667 1.35364,-0.38757 l 1.20447,1.20447 c 0.12207,0.12207 0.28174,0.18311 0.44189,0.18311 0.16015,0 0.31982,-0.06104 0.44189,-0.18311 0.24414,-0.24414 0.24414,-0.63965 0,-0.88379 L 13.23742,12.35364 Z M 9.625,11 c 0,-0.7583 0.6167,-1.375 1.375,-1.375 0.7583,0 1.375,0.6167 1.375,1.375 0,0.37799 -0.1535,0.72058 -0.40112,0.96936 -7.9e-4,7.9e-4 -0.0019,10e-4 -0.0027,0.0018 -8e-4,7.9e-4 -0.001,0.0019 -0.0018,0.0027 C 11.72058,12.2215 11.37799,12.375 11,12.375 10.2417,12.375 9.625,11.7583 9.625,11 Z"
       fill="#ffffff"
       stroke-width="0"
       id="path19" />
    <path
       d="m 13.55811,23.55811 -1.20447,1.20447 C 11.95703,24.52167 11.49689,24.37501 11,24.37501 c -1.44727,0 -2.625,1.17773 -2.625,2.625 0,1.44727 1.17773,2.625 2.625,2.625 1.44727,0 2.625,-1.17773 2.625,-2.625 0,-0.49689 -0.14667,-0.95703 -0.38757,-1.35364 L 14.4419,24.4419 c 0.24414,-0.24414 0.24414,-0.63965 0,-0.88379 -0.24414,-0.24414 -0.63965,-0.24414 -0.88379,0 z M 11,28.375 c -0.7583,0 -1.375,-0.6167 -1.375,-1.375 0,-0.7583 0.6167,-1.375 1.375,-1.375 0.37885,0 0.72229,0.15399 0.97119,0.40259 2.4e-4,2.4e-4 2.4e-4,4.9e-4 4.9e-4,7.3e-4 2.5e-4,2.4e-4 4.9e-4,2.4e-4 7.3e-4,4.9e-4 0.2486,0.2489 0.40259,0.59235 0.40259,0.97119 0,0.7583 -0.6167,1.375 -1.375,1.375 z"
       fill="#ffffff"
       stroke-width="0"
       id="path21" />
  </g>
</svg>
