<?xml version="1.0" standalone="no"?>
<!DOCTYPE svg PUBLIC "-//W3C//DTD SVG 20010904//EN"
 "http://www.w3.org/TR/2001/REC-SVG-20010904/DTD/svg10.dtd">
<svg version="1.0" xmlns="http://www.w3.org/2000/svg"
 width="406.000000pt" height="115.000000pt" viewBox="0 0 406.000000 115.000000"
 preserveAspectRatio="xMidYMid meet">

        <g transform="translate(0.000000,115.000000) scale(0.100000,-0.100000)"
        fill="#000000" stroke="none">
        <path d="M60 992 c0 -28 35 -68 83 -96 47 -27 203 -77 317 -101 103 -21 101
        -19 84 -90 -7 -33 -13 -78 -13 -100 1 -33 4 -25 18 40 9 44 22 90 29 102 11
        20 9 23 -30 41 -103 46 -240 107 -333 148 -55 25 -112 52 -127 60 -26 14 -28
        14 -28 -4z"/>
        <path d="M55 803 c9 -52 40 -98 73 -112 31 -12 113 -17 260 -13 101 2 102 2
        102 27 0 29 -18 35 -188 65 -62 11 -142 32 -178 45 -37 14 -69 25 -71 25 -3 0
        -2 -17 2 -37z"/>
        <path d="M3860 570 l0 -260 50 0 50 0 0 260 0 260 -50 0 -50 0 0 -260z"/>
        <path d="M890 559 l0 -252 98 5 c110 7 161 24 210 71 52 49 75 103 76 172 0
        81 -17 127 -70 180 -56 55 -116 75 -231 75 l-83 0 0 -251z m204 132 c58 -32
        82 -123 52 -194 -21 -50 -59 -79 -110 -84 l-46 -6 0 150 c0 82 3 152 6 156 9
        9 65 -3 98 -22z"/>
        <path d="M2090 561 l0 -251 50 0 50 0 0 95 0 95 58 0 c72 0 139 31 165 78 25
        43 25 127 -1 161 -43 58 -64 66 -198 70 l-124 3 0 -251z m212 142 c24 -21 23
        -75 -1 -97 -10 -10 -38 -18 -62 -19 l-44 -2 -3 59 c-4 83 0 90 50 82 24 -4 50
        -14 60 -23z"/>
        <path d="M3227 733 c-4 -3 -7 -30 -7 -60 0 -50 -1 -53 -26 -53 -23 0 -25 -3
        -22 -37 2 -30 7 -38 23 -38 18 0 20 -8 25 -92 5 -79 8 -95 29 -117 20 -22 33
        -26 78 -26 38 0 55 4 59 15 8 20 -11 71 -26 67 -27 -6 -40 20 -40 83 0 62 1
        64 30 70 26 6 30 11 30 41 0 31 -3 34 -30 34 l-30 0 0 60 0 60 -43 0 c-24 0
        -47 -3 -50 -7z"/>
        <path d="M1415 611 c-121 -55 -135 -202 -28 -276 61 -41 174 -34 223 15 27 27
        25 35 -8 49 -24 10 -35 9 -64 -5 -55 -26 -118 -1 -118 47 0 18 8 19 110 19
        l110 0 0 33 c0 47 -34 95 -83 117 -53 24 -91 25 -142 1z m113 -68 l27 -28 -64
        -3 c-35 -2 -65 -1 -67 1 -9 9 10 39 30 47 34 14 46 11 74 -17z"/>
        <path d="M2585 615 c-91 -32 -134 -124 -97 -208 28 -62 71 -90 148 -95 78 -5
        125 10 163 53 57 65 51 157 -14 214 -56 49 -127 62 -200 36z m129 -97 c38 -55
        6 -128 -56 -128 -67 0 -104 84 -58 130 29 29 94 27 114 -2z"/>
        <path d="M3070 623 c-8 -3 -27 -15 -42 -25 -28 -19 -28 -19 -28 1 0 18 -6 21
        -50 21 l-50 0 0 -155 0 -155 50 0 50 0 0 93 c0 119 12 140 77 136 43 -3 46 -1
        65 34 l19 37 -26 10 c-29 11 -42 11 -65 3z"/>
        <path d="M3515 616 c-109 -47 -124 -217 -26 -283 44 -29 113 -31 159 -3 32 20
        32 20 32 0 0 -17 7 -20 50 -20 l50 0 0 155 0 155 -50 0 c-38 0 -50 -4 -50 -15
        0 -19 2 -19 -45 5 -45 23 -77 25 -120 6z m145 -96 c46 -46 9 -130 -57 -130
        -44 0 -73 30 -73 75 0 22 8 43 20 55 12 12 33 20 55 20 22 0 43 -8 55 -20z"/>
        <path d="M360 608 c-63 -3 -148 -4 -187 -1 -40 3 -73 3 -73 -1 0 -18 32 -66
        56 -85 38 -30 102 -27 220 9 54 17 99 32 102 34 2 2 2 15 0 28 l-3 23 -115 -7z"/>
        <path d="M1726 493 c100 -192 94 -183 129 -183 33 0 27 -8 139 203 l58 107
        -60 0 -59 0 -35 -82 c-20 -46 -39 -83 -43 -83 -3 0 -23 37 -43 83 l-37 82 -58
        0 -59 0 68 -127z"/>
        <path d="M360 459 c-63 -21 -122 -39 -132 -39 -27 0 -22 -16 14 -41 46 -33 88
        -28 185 22 46 23 83 44 83 45 0 13 -21 54 -27 53 -5 0 -60 -18 -123 -40z"/>
        <path d="M515 381 c-6 -5 -47 -32 -92 -59 -79 -48 -81 -50 -57 -61 52 -23 88
        -13 159 46 37 31 38 34 25 58 -14 27 -21 30 -35 16z"/>
        <path d="M541 245 l-53 -55 28 -10 c40 -15 69 0 94 51 12 22 20 42 18 43 -2 1
        -10 7 -19 14 -13 9 -24 2 -68 -43z"/>
        </g>
</svg>
